%
M48
M72
T01C0.03150
T02C0.03200
T03C0.03543
T04C0.03937
T05C0.04000
T06C0.04400
T07C0.13000
%
T01
X85978Y37375
X91378Y47675
X102078Y40875
X107678Y48575
X91378Y57675
X91378Y67675
X91378Y77675
X91378Y87675
X91378Y97675
X91378Y107675
X91378Y117675
X91378Y127675
X91378Y137675
X91378Y147675
X91378Y157675
X91378Y167675
X91378Y177675
X91378Y187675
X81078Y208875
X65278Y224275
X57678Y216375
X60078Y232175
X36478Y223675
X67778Y191375
X53078Y189975
X107678Y136775
X127378Y128275
X147578Y140275
X151978Y148975
X141778Y151575
X148978Y166675
X147578Y184175
X153778Y189975
X148978Y205075
X168178Y176275
X181378Y177675
X181378Y187675
X181378Y167675
X181378Y157675
X181378Y147675
X181378Y137675
X181378Y127675
X181378Y117675
X181378Y107675
X181378Y97675
X181378Y87675
X181378Y77675
X181378Y67675
X181378Y57675
X181378Y47675
X169278Y52075
X188878Y35275
X201778Y41875
X197078Y56175
X213378Y69575
X214078Y95475
X202478Y122075
X201778Y159475
X216178Y171475
X220378Y202575
X220378Y213075
X218578Y224275
X118878Y180175
X116778Y211575
X116778Y220875
X43378Y116275
X76178Y89175
T02
X111378Y117675
X121378Y117675
X118578Y94075
X120678Y74175
X121378Y62675
X121378Y46975
X150678Y74175
X151378Y62675
X151378Y46975
X148578Y94075
X146378Y117675
X156378Y117675
X138578Y170575
X140678Y189775
X120678Y189775
X118578Y170575
X211378Y152675
X211378Y142675
X211378Y122675
X211378Y112675
T03
X190278Y134675
X172778Y161975
X108378Y84275
X100678Y68875
X165778Y82175
T04
X56378Y50863
X75276Y62675
X56378Y74879
T05
X56378Y172875
X46378Y172875
X66378Y172875
X61378Y202675
X51378Y202675
X71378Y202675
X204578Y96175
X222378Y96175
X222378Y70575
X223778Y54775
X205978Y54775
X204578Y70575
X205978Y29175
X223778Y29175
X208578Y182675
X208578Y192675
X208578Y202675
X208578Y212675
T06
X66378Y90575
X56378Y90575
X46378Y90575
T07
X56378Y149575
M30
