G75*
%MOIN*%
%OFA0B0*%
%FSLAX25Y25*%
%IPPOS*%
%LPD*%
%AMOC8*
5,1,8,0,0,1.08239X$1,22.5*
%
%ADD10C,0.00500*%
%ADD11C,0.00400*%
%ADD12OC8,0.06300*%
%ADD13C,0.06300*%
%ADD14C,0.06000*%
%ADD15C,0.06600*%
%ADD16C,0.00000*%
%ADD17OC8,0.05200*%
%ADD18C,0.07600*%
%ADD19C,0.07874*%
%ADD20OC8,0.06600*%
%ADD21C,0.02400*%
%ADD22C,0.06600*%
%ADD23C,0.05600*%
D10*
X0028578Y0021275D02*
X0028578Y0237575D01*
X0236478Y0236875D01*
X0238578Y0019875D01*
X0028578Y0021275D01*
D11*
X0135336Y0033542D02*
X0136203Y0032675D01*
X0137938Y0032675D01*
X0138805Y0033542D01*
X0135336Y0037012D01*
X0135336Y0033542D01*
X0138805Y0033542D02*
X0138805Y0037012D01*
X0137938Y0037879D01*
X0136203Y0037879D01*
X0135336Y0037012D01*
X0140516Y0033542D02*
X0140516Y0032675D01*
X0141384Y0032675D01*
X0141384Y0033542D01*
X0140516Y0033542D01*
X0143070Y0032675D02*
X0146540Y0032675D01*
X0144805Y0032675D02*
X0144805Y0037879D01*
X0146540Y0036144D01*
X0148227Y0036144D02*
X0149962Y0032675D01*
X0151696Y0036144D01*
X0158540Y0037012D02*
X0159407Y0037879D01*
X0161142Y0037879D01*
X0162009Y0037012D01*
X0162009Y0036144D01*
X0161142Y0035277D01*
X0159407Y0035277D01*
X0158540Y0034409D01*
X0158540Y0033542D01*
X0159407Y0032675D01*
X0161142Y0032675D01*
X0162009Y0033542D01*
X0163696Y0032675D02*
X0163696Y0037879D01*
X0165431Y0036144D01*
X0167166Y0037879D01*
X0167166Y0032675D01*
X0169720Y0034409D02*
X0172322Y0034409D01*
X0172322Y0032675D02*
X0172322Y0037879D01*
X0169720Y0037879D01*
X0168852Y0037012D01*
X0168852Y0035277D01*
X0169720Y0034409D01*
X0174009Y0035277D02*
X0174876Y0034409D01*
X0177478Y0034409D01*
X0175744Y0034409D02*
X0174009Y0032675D01*
X0174009Y0035277D02*
X0174009Y0037012D01*
X0174876Y0037879D01*
X0177478Y0037879D01*
X0177478Y0032675D01*
X0176611Y0029479D02*
X0177478Y0028612D01*
X0177478Y0025142D01*
X0176611Y0024275D01*
X0174876Y0024275D01*
X0174009Y0025142D01*
X0174009Y0026877D01*
X0175744Y0026877D01*
X0174009Y0028612D02*
X0174876Y0029479D01*
X0176611Y0029479D01*
X0172322Y0029479D02*
X0172322Y0024275D01*
X0172322Y0026009D02*
X0169720Y0026009D01*
X0168852Y0026877D01*
X0168852Y0028612D01*
X0169720Y0029479D01*
X0172322Y0029479D01*
X0170587Y0026009D02*
X0168852Y0024275D01*
X0167166Y0025142D02*
X0167166Y0028612D01*
X0166298Y0029479D01*
X0164563Y0029479D01*
X0163696Y0028612D01*
X0163696Y0025142D01*
X0164563Y0024275D01*
X0166298Y0024275D01*
X0167166Y0025142D01*
X0162009Y0025142D02*
X0162009Y0029479D01*
X0158540Y0029479D02*
X0158540Y0025142D01*
X0159407Y0024275D01*
X0161142Y0024275D01*
X0162009Y0025142D01*
X0156853Y0026009D02*
X0154251Y0026009D01*
X0153383Y0026877D01*
X0153383Y0028612D01*
X0154251Y0029479D01*
X0156853Y0029479D01*
X0156853Y0024275D01*
X0146540Y0024275D02*
X0143070Y0024275D01*
X0144805Y0024275D02*
X0144805Y0029479D01*
X0146540Y0027744D01*
X0141384Y0028612D02*
X0141384Y0025142D01*
X0137914Y0028612D01*
X0137914Y0025142D01*
X0138781Y0024275D01*
X0140516Y0024275D01*
X0141384Y0025142D01*
X0141384Y0028612D02*
X0140516Y0029479D01*
X0138781Y0029479D01*
X0137914Y0028612D01*
D12*
X0121378Y0117675D03*
X0156378Y0117675D03*
D13*
X0146378Y0117675D03*
X0111378Y0117675D03*
D14*
X0066378Y0169875D02*
X0066378Y0175875D01*
X0056378Y0175875D02*
X0056378Y0169875D01*
X0046378Y0169875D02*
X0046378Y0175875D01*
X0051378Y0199675D02*
X0051378Y0205675D01*
X0061378Y0205675D02*
X0061378Y0199675D01*
X0071378Y0199675D02*
X0071378Y0205675D01*
X0205578Y0202675D02*
X0211578Y0202675D01*
X0211578Y0192675D02*
X0205578Y0192675D01*
X0205578Y0182675D02*
X0211578Y0182675D01*
X0211578Y0212675D02*
X0205578Y0212675D01*
X0204578Y0099175D02*
X0204578Y0093175D01*
X0222378Y0093175D02*
X0222378Y0099175D01*
X0222378Y0073575D02*
X0222378Y0067575D01*
X0223778Y0057775D02*
X0223778Y0051775D01*
X0205978Y0051775D02*
X0205978Y0057775D01*
X0204578Y0067575D02*
X0204578Y0073575D01*
X0205978Y0032175D02*
X0205978Y0026175D01*
X0223778Y0026175D02*
X0223778Y0032175D01*
D15*
X0066378Y0087275D02*
X0066378Y0093875D01*
X0056378Y0093875D02*
X0056378Y0087275D01*
X0046378Y0087275D02*
X0046378Y0093875D01*
D16*
X0049878Y0149575D02*
X0049880Y0149736D01*
X0049886Y0149896D01*
X0049896Y0150057D01*
X0049910Y0150217D01*
X0049928Y0150377D01*
X0049949Y0150536D01*
X0049975Y0150695D01*
X0050005Y0150853D01*
X0050038Y0151010D01*
X0050076Y0151167D01*
X0050117Y0151322D01*
X0050162Y0151476D01*
X0050211Y0151629D01*
X0050264Y0151781D01*
X0050320Y0151932D01*
X0050381Y0152081D01*
X0050444Y0152229D01*
X0050512Y0152375D01*
X0050583Y0152519D01*
X0050657Y0152661D01*
X0050735Y0152802D01*
X0050817Y0152940D01*
X0050902Y0153077D01*
X0050990Y0153211D01*
X0051082Y0153343D01*
X0051177Y0153473D01*
X0051275Y0153601D01*
X0051376Y0153726D01*
X0051480Y0153848D01*
X0051587Y0153968D01*
X0051697Y0154085D01*
X0051810Y0154200D01*
X0051926Y0154311D01*
X0052045Y0154420D01*
X0052166Y0154525D01*
X0052290Y0154628D01*
X0052416Y0154728D01*
X0052544Y0154824D01*
X0052675Y0154917D01*
X0052809Y0155007D01*
X0052944Y0155094D01*
X0053082Y0155177D01*
X0053221Y0155257D01*
X0053363Y0155333D01*
X0053506Y0155406D01*
X0053651Y0155475D01*
X0053798Y0155541D01*
X0053946Y0155603D01*
X0054096Y0155661D01*
X0054247Y0155716D01*
X0054400Y0155767D01*
X0054554Y0155814D01*
X0054709Y0155857D01*
X0054865Y0155896D01*
X0055021Y0155932D01*
X0055179Y0155963D01*
X0055337Y0155991D01*
X0055496Y0156015D01*
X0055656Y0156035D01*
X0055816Y0156051D01*
X0055976Y0156063D01*
X0056137Y0156071D01*
X0056298Y0156075D01*
X0056458Y0156075D01*
X0056619Y0156071D01*
X0056780Y0156063D01*
X0056940Y0156051D01*
X0057100Y0156035D01*
X0057260Y0156015D01*
X0057419Y0155991D01*
X0057577Y0155963D01*
X0057735Y0155932D01*
X0057891Y0155896D01*
X0058047Y0155857D01*
X0058202Y0155814D01*
X0058356Y0155767D01*
X0058509Y0155716D01*
X0058660Y0155661D01*
X0058810Y0155603D01*
X0058958Y0155541D01*
X0059105Y0155475D01*
X0059250Y0155406D01*
X0059393Y0155333D01*
X0059535Y0155257D01*
X0059674Y0155177D01*
X0059812Y0155094D01*
X0059947Y0155007D01*
X0060081Y0154917D01*
X0060212Y0154824D01*
X0060340Y0154728D01*
X0060466Y0154628D01*
X0060590Y0154525D01*
X0060711Y0154420D01*
X0060830Y0154311D01*
X0060946Y0154200D01*
X0061059Y0154085D01*
X0061169Y0153968D01*
X0061276Y0153848D01*
X0061380Y0153726D01*
X0061481Y0153601D01*
X0061579Y0153473D01*
X0061674Y0153343D01*
X0061766Y0153211D01*
X0061854Y0153077D01*
X0061939Y0152940D01*
X0062021Y0152802D01*
X0062099Y0152661D01*
X0062173Y0152519D01*
X0062244Y0152375D01*
X0062312Y0152229D01*
X0062375Y0152081D01*
X0062436Y0151932D01*
X0062492Y0151781D01*
X0062545Y0151629D01*
X0062594Y0151476D01*
X0062639Y0151322D01*
X0062680Y0151167D01*
X0062718Y0151010D01*
X0062751Y0150853D01*
X0062781Y0150695D01*
X0062807Y0150536D01*
X0062828Y0150377D01*
X0062846Y0150217D01*
X0062860Y0150057D01*
X0062870Y0149896D01*
X0062876Y0149736D01*
X0062878Y0149575D01*
X0062876Y0149414D01*
X0062870Y0149254D01*
X0062860Y0149093D01*
X0062846Y0148933D01*
X0062828Y0148773D01*
X0062807Y0148614D01*
X0062781Y0148455D01*
X0062751Y0148297D01*
X0062718Y0148140D01*
X0062680Y0147983D01*
X0062639Y0147828D01*
X0062594Y0147674D01*
X0062545Y0147521D01*
X0062492Y0147369D01*
X0062436Y0147218D01*
X0062375Y0147069D01*
X0062312Y0146921D01*
X0062244Y0146775D01*
X0062173Y0146631D01*
X0062099Y0146489D01*
X0062021Y0146348D01*
X0061939Y0146210D01*
X0061854Y0146073D01*
X0061766Y0145939D01*
X0061674Y0145807D01*
X0061579Y0145677D01*
X0061481Y0145549D01*
X0061380Y0145424D01*
X0061276Y0145302D01*
X0061169Y0145182D01*
X0061059Y0145065D01*
X0060946Y0144950D01*
X0060830Y0144839D01*
X0060711Y0144730D01*
X0060590Y0144625D01*
X0060466Y0144522D01*
X0060340Y0144422D01*
X0060212Y0144326D01*
X0060081Y0144233D01*
X0059947Y0144143D01*
X0059812Y0144056D01*
X0059674Y0143973D01*
X0059535Y0143893D01*
X0059393Y0143817D01*
X0059250Y0143744D01*
X0059105Y0143675D01*
X0058958Y0143609D01*
X0058810Y0143547D01*
X0058660Y0143489D01*
X0058509Y0143434D01*
X0058356Y0143383D01*
X0058202Y0143336D01*
X0058047Y0143293D01*
X0057891Y0143254D01*
X0057735Y0143218D01*
X0057577Y0143187D01*
X0057419Y0143159D01*
X0057260Y0143135D01*
X0057100Y0143115D01*
X0056940Y0143099D01*
X0056780Y0143087D01*
X0056619Y0143079D01*
X0056458Y0143075D01*
X0056298Y0143075D01*
X0056137Y0143079D01*
X0055976Y0143087D01*
X0055816Y0143099D01*
X0055656Y0143115D01*
X0055496Y0143135D01*
X0055337Y0143159D01*
X0055179Y0143187D01*
X0055021Y0143218D01*
X0054865Y0143254D01*
X0054709Y0143293D01*
X0054554Y0143336D01*
X0054400Y0143383D01*
X0054247Y0143434D01*
X0054096Y0143489D01*
X0053946Y0143547D01*
X0053798Y0143609D01*
X0053651Y0143675D01*
X0053506Y0143744D01*
X0053363Y0143817D01*
X0053221Y0143893D01*
X0053082Y0143973D01*
X0052944Y0144056D01*
X0052809Y0144143D01*
X0052675Y0144233D01*
X0052544Y0144326D01*
X0052416Y0144422D01*
X0052290Y0144522D01*
X0052166Y0144625D01*
X0052045Y0144730D01*
X0051926Y0144839D01*
X0051810Y0144950D01*
X0051697Y0145065D01*
X0051587Y0145182D01*
X0051480Y0145302D01*
X0051376Y0145424D01*
X0051275Y0145549D01*
X0051177Y0145677D01*
X0051082Y0145807D01*
X0050990Y0145939D01*
X0050902Y0146073D01*
X0050817Y0146210D01*
X0050735Y0146348D01*
X0050657Y0146489D01*
X0050583Y0146631D01*
X0050512Y0146775D01*
X0050444Y0146921D01*
X0050381Y0147069D01*
X0050320Y0147218D01*
X0050264Y0147369D01*
X0050211Y0147521D01*
X0050162Y0147674D01*
X0050117Y0147828D01*
X0050076Y0147983D01*
X0050038Y0148140D01*
X0050005Y0148297D01*
X0049975Y0148455D01*
X0049949Y0148614D01*
X0049928Y0148773D01*
X0049910Y0148933D01*
X0049896Y0149093D01*
X0049886Y0149254D01*
X0049880Y0149414D01*
X0049878Y0149575D01*
D17*
X0211378Y0152675D03*
X0211378Y0142675D03*
X0211378Y0122675D03*
X0211378Y0112675D03*
D18*
X0181378Y0117675D03*
X0181378Y0127675D03*
X0181378Y0137675D03*
X0181378Y0147675D03*
X0181378Y0157675D03*
X0181378Y0167675D03*
X0181378Y0177675D03*
X0181378Y0187675D03*
X0181378Y0107675D03*
X0181378Y0097675D03*
X0181378Y0087675D03*
X0181378Y0077675D03*
X0181378Y0067675D03*
X0181378Y0057675D03*
X0181378Y0047675D03*
X0091378Y0047675D03*
X0091378Y0057675D03*
X0091378Y0067675D03*
X0091378Y0077675D03*
X0091378Y0087675D03*
X0091378Y0097675D03*
X0091378Y0107675D03*
X0091378Y0117675D03*
X0091378Y0127675D03*
X0091378Y0137675D03*
X0091378Y0147675D03*
X0091378Y0157675D03*
X0091378Y0167675D03*
X0091378Y0177675D03*
X0091378Y0187675D03*
D19*
X0060315Y0074879D02*
X0052441Y0074879D01*
X0052441Y0050863D02*
X0060315Y0050863D01*
X0075276Y0058737D02*
X0075276Y0066612D01*
D20*
X0118578Y0094075D03*
X0120678Y0074175D03*
X0121378Y0062675D03*
X0121378Y0046975D03*
X0150678Y0074175D03*
X0151378Y0062675D03*
X0151378Y0046975D03*
X0148578Y0094075D03*
X0138578Y0170575D03*
X0140678Y0189775D03*
X0120678Y0189775D03*
X0118578Y0170575D03*
D21*
X0118578Y0179875D01*
X0118878Y0180175D01*
X0123978Y0187275D02*
X0120678Y0189775D01*
X0123978Y0187275D02*
X0131478Y0186575D01*
X0134178Y0181075D01*
X0139678Y0180375D01*
X0146578Y0176275D01*
X0148978Y0176275D01*
X0156178Y0169075D01*
X0180178Y0169075D01*
X0181378Y0167675D01*
X0178378Y0159075D02*
X0172778Y0161975D01*
X0178378Y0159075D02*
X0181378Y0157675D01*
X0175378Y0147475D02*
X0170578Y0152275D01*
X0165778Y0152275D01*
X0151378Y0166675D01*
X0148978Y0166675D01*
X0151378Y0159475D02*
X0172978Y0137875D01*
X0177778Y0137875D01*
X0181578Y0137475D01*
X0181378Y0137675D01*
X0182578Y0137875D01*
X0181578Y0137475D01*
X0183278Y0137475D01*
X0184978Y0139275D01*
X0190178Y0143475D01*
X0198078Y0137675D01*
X0194578Y0119275D01*
X0194978Y0104275D01*
X0194978Y0101175D01*
X0194578Y0099475D01*
X0197378Y0090575D01*
X0199378Y0085075D01*
X0201778Y0085075D01*
X0204178Y0082675D01*
X0211378Y0082675D01*
X0216278Y0083675D01*
X0221378Y0091575D01*
X0222078Y0095375D01*
X0222378Y0096175D01*
X0214078Y0095475D02*
X0211178Y0094675D01*
X0203478Y0095375D01*
X0204578Y0096175D01*
X0203478Y0095375D02*
X0223378Y0113875D01*
X0223378Y0130675D01*
X0228178Y0135475D01*
X0228178Y0147475D01*
X0223378Y0152275D01*
X0223378Y0157075D01*
X0216178Y0164275D01*
X0211378Y0164275D01*
X0196978Y0178675D01*
X0196278Y0181975D01*
X0189078Y0189175D01*
X0182578Y0188275D01*
X0181378Y0187675D01*
X0180178Y0178675D02*
X0175378Y0178675D01*
X0148978Y0205075D01*
X0153778Y0189975D02*
X0132178Y0212275D01*
X0116778Y0211575D01*
X0110578Y0207475D02*
X0110578Y0166675D01*
X0117778Y0159475D01*
X0134578Y0159475D01*
X0134578Y0075475D01*
X0122578Y0063475D01*
X0121378Y0062675D01*
X0112478Y0068275D02*
X0099978Y0080775D01*
X0099978Y0093475D01*
X0108378Y0084275D02*
X0121378Y0084275D01*
X0118578Y0094075D01*
X0110778Y0104275D02*
X0110517Y0104272D01*
X0110256Y0104262D01*
X0109996Y0104247D01*
X0109736Y0104225D01*
X0109476Y0104196D01*
X0109218Y0104162D01*
X0108960Y0104121D01*
X0108703Y0104074D01*
X0108448Y0104021D01*
X0108193Y0103961D01*
X0107941Y0103896D01*
X0107690Y0103824D01*
X0107441Y0103746D01*
X0107193Y0103663D01*
X0106948Y0103573D01*
X0106705Y0103478D01*
X0106465Y0103376D01*
X0106227Y0103269D01*
X0105992Y0103156D01*
X0105759Y0103038D01*
X0105529Y0102914D01*
X0105303Y0102784D01*
X0105079Y0102649D01*
X0104859Y0102509D01*
X0104643Y0102363D01*
X0104430Y0102212D01*
X0104221Y0102056D01*
X0104015Y0101895D01*
X0103814Y0101730D01*
X0103616Y0101559D01*
X0103423Y0101384D01*
X0103234Y0101203D01*
X0103050Y0101019D01*
X0102869Y0100830D01*
X0102694Y0100637D01*
X0102523Y0100439D01*
X0102358Y0100238D01*
X0102197Y0100032D01*
X0102041Y0099823D01*
X0101890Y0099610D01*
X0101744Y0099394D01*
X0101604Y0099174D01*
X0101469Y0098950D01*
X0101339Y0098724D01*
X0101215Y0098494D01*
X0101097Y0098261D01*
X0100984Y0098026D01*
X0100877Y0097788D01*
X0100775Y0097548D01*
X0100680Y0097305D01*
X0100590Y0097060D01*
X0100507Y0096812D01*
X0100429Y0096563D01*
X0100357Y0096312D01*
X0100292Y0096060D01*
X0100232Y0095805D01*
X0100179Y0095550D01*
X0100132Y0095293D01*
X0100091Y0095035D01*
X0100057Y0094777D01*
X0100028Y0094517D01*
X0100006Y0094257D01*
X0099991Y0093997D01*
X0099981Y0093736D01*
X0099978Y0093475D01*
X0110778Y0104275D02*
X0120178Y0104975D01*
X0123578Y0109075D01*
X0122578Y0111475D01*
X0122578Y0116275D01*
X0121378Y0117675D01*
X0112578Y0118875D02*
X0111378Y0117675D01*
X0112578Y0118875D02*
X0112578Y0131875D01*
X0107678Y0136775D01*
X0127378Y0128275D02*
X0129778Y0125875D01*
X0129778Y0082675D01*
X0124978Y0077875D01*
X0123278Y0076475D01*
X0120678Y0074175D01*
X0112478Y0068275D02*
X0105178Y0056075D01*
X0091378Y0057675D01*
X0075276Y0062675D01*
X0063465Y0050863D01*
X0056378Y0050863D01*
X0074578Y0063475D02*
X0074578Y0073075D01*
X0072178Y0075475D01*
X0072178Y0077875D01*
X0082878Y0082275D01*
X0082878Y0104375D01*
X0069778Y0109075D01*
X0055378Y0109075D01*
X0052978Y0106675D01*
X0043378Y0116275D01*
X0052978Y0106675D02*
X0055378Y0104275D01*
X0055378Y0094675D01*
X0056378Y0090575D01*
X0046378Y0090575D02*
X0045778Y0092275D01*
X0040978Y0092275D01*
X0036178Y0087475D01*
X0036178Y0082675D01*
X0043378Y0075475D01*
X0055378Y0075475D01*
X0056378Y0074879D01*
X0046378Y0090575D02*
X0045378Y0092575D01*
X0043678Y0094975D01*
X0043378Y0094675D01*
X0036178Y0101875D01*
X0036178Y0176275D01*
X0033778Y0178675D01*
X0033778Y0188275D01*
X0036178Y0190675D01*
X0034078Y0210975D01*
X0050178Y0227075D01*
X0065278Y0224275D01*
X0057678Y0216375D02*
X0050878Y0217775D01*
X0039578Y0207175D01*
X0040278Y0192575D01*
X0042578Y0183975D01*
X0062278Y0182575D01*
X0065678Y0179175D01*
X0066378Y0172875D01*
X0056378Y0172875D02*
X0055378Y0174075D01*
X0055378Y0171475D01*
X0054978Y0163475D01*
X0077078Y0162775D01*
X0076978Y0173875D01*
X0076978Y0188275D01*
X0081778Y0193075D01*
X0087378Y0202275D01*
X0090478Y0206775D01*
X0090478Y0209175D01*
X0091378Y0217075D01*
X0100978Y0217075D01*
X0110578Y0207475D01*
X0116778Y0220875D02*
X0172978Y0219475D01*
X0195478Y0192775D01*
X0200378Y0186875D01*
X0206578Y0183475D01*
X0211378Y0183475D01*
X0208578Y0182675D01*
X0208578Y0192675D02*
X0208578Y0193075D01*
X0200278Y0196575D01*
X0173678Y0228775D01*
X0082478Y0228775D01*
X0062578Y0207475D01*
X0062578Y0203875D01*
X0062578Y0197975D01*
X0067778Y0191375D01*
X0071378Y0202675D02*
X0071378Y0204775D01*
X0081078Y0208875D01*
X0062578Y0203875D02*
X0061378Y0202675D01*
X0051378Y0202675D02*
X0054878Y0193875D01*
X0053078Y0189975D01*
X0046378Y0172875D02*
X0046378Y0171875D01*
X0042078Y0159375D01*
X0064778Y0158675D01*
X0082078Y0156375D01*
X0081778Y0176275D01*
X0081778Y0180075D01*
X0088978Y0187275D01*
X0090378Y0187575D01*
X0091378Y0188275D01*
X0091378Y0187675D01*
X0134578Y0159475D02*
X0151378Y0159475D01*
X0151978Y0148975D02*
X0159278Y0143375D01*
X0172978Y0128275D01*
X0180178Y0128275D01*
X0181378Y0127675D01*
X0183278Y0127675D01*
X0190278Y0134675D01*
X0181378Y0147675D02*
X0180178Y0147475D01*
X0175378Y0147475D01*
X0158578Y0135475D02*
X0175378Y0118675D01*
X0180178Y0118675D01*
X0181378Y0117675D01*
X0181378Y0107675D02*
X0170278Y0107675D01*
X0165778Y0082175D01*
X0172678Y0075675D02*
X0175378Y0087475D01*
X0177778Y0087475D01*
X0180178Y0087175D01*
X0182578Y0087475D01*
X0181378Y0087675D01*
X0190478Y0089875D02*
X0183278Y0097075D01*
X0181378Y0097675D01*
X0190478Y0089875D02*
X0191178Y0067375D01*
X0190078Y0065575D01*
X0190078Y0045175D01*
X0201778Y0041875D01*
X0211378Y0044275D02*
X0211378Y0039475D01*
X0218578Y0032275D01*
X0218578Y0029875D01*
X0223778Y0029175D01*
X0211378Y0044275D02*
X0216478Y0051475D01*
X0217478Y0052875D01*
X0220978Y0053175D01*
X0223778Y0054775D01*
X0222378Y0070575D01*
X0221678Y0072775D01*
X0214178Y0082375D01*
X0211378Y0082675D01*
X0210978Y0069875D02*
X0204578Y0070575D01*
X0210978Y0069875D02*
X0213378Y0069575D01*
X0205978Y0054775D02*
X0197078Y0056175D01*
X0188878Y0035275D02*
X0194278Y0029875D01*
X0205978Y0029175D01*
X0169278Y0052075D02*
X0164178Y0046975D01*
X0151378Y0046975D01*
X0151378Y0062675D02*
X0143378Y0067875D01*
X0143378Y0078675D01*
X0145478Y0081475D01*
X0146878Y0082175D01*
X0158078Y0082175D01*
X0166078Y0120475D01*
X0153778Y0130675D01*
X0148978Y0130675D01*
X0139678Y0136475D01*
X0141778Y0151575D01*
X0147578Y0140275D02*
X0153778Y0135475D01*
X0158578Y0135475D01*
X0156378Y0117675D02*
X0158578Y0116275D01*
X0157878Y0102575D01*
X0157078Y0098475D01*
X0154978Y0089075D01*
X0153078Y0087175D01*
X0149678Y0086475D01*
X0146578Y0086775D01*
X0139378Y0087975D01*
X0139378Y0070675D01*
X0131278Y0054175D01*
X0110578Y0055575D01*
X0105178Y0056075D01*
X0107678Y0048575D02*
X0116278Y0047175D01*
X0121378Y0046975D01*
X0102078Y0040875D02*
X0095278Y0047675D01*
X0091378Y0047675D01*
X0091378Y0039275D01*
X0085978Y0037375D01*
X0091378Y0067675D02*
X0097378Y0067675D01*
X0100678Y0068875D01*
X0076178Y0089175D02*
X0070578Y0089875D01*
X0066378Y0090575D01*
X0139378Y0106675D02*
X0139378Y0111475D01*
X0144178Y0116275D01*
X0146378Y0117675D01*
X0139378Y0106675D02*
X0149278Y0095375D01*
X0148578Y0094075D01*
X0150678Y0074175D02*
X0154878Y0074375D01*
X0159678Y0072975D01*
X0160978Y0073575D01*
X0172678Y0075675D01*
X0202478Y0122075D02*
X0202878Y0125175D01*
X0202178Y0156375D01*
X0201778Y0159475D01*
X0211378Y0152675D02*
X0211378Y0152275D01*
X0216178Y0152275D01*
X0223378Y0145075D01*
X0223378Y0137875D01*
X0211378Y0125875D01*
X0211378Y0122675D01*
X0216178Y0171475D02*
X0218578Y0171475D01*
X0228578Y0178675D01*
X0228578Y0216375D01*
X0218578Y0224275D01*
X0220378Y0213075D02*
X0219278Y0212675D01*
X0208578Y0212675D01*
X0208578Y0202675D02*
X0209778Y0202675D01*
X0209878Y0202575D01*
X0220378Y0202575D01*
X0181378Y0177675D02*
X0180178Y0178675D01*
X0168178Y0176275D02*
X0155478Y0176975D01*
X0147578Y0184175D01*
X0060078Y0232175D02*
X0040378Y0232875D01*
X0037478Y0225775D01*
X0036478Y0223675D01*
D22*
X0036478Y0223675D03*
X0057678Y0216375D03*
X0065278Y0224275D03*
X0060078Y0232175D03*
X0081078Y0208875D03*
X0067778Y0191375D03*
X0053078Y0189975D03*
X0107678Y0136775D03*
X0127378Y0128275D03*
X0147578Y0140275D03*
X0151978Y0148975D03*
X0141778Y0151575D03*
X0148978Y0166675D03*
X0168178Y0176275D03*
X0172778Y0161975D03*
X0190278Y0134675D03*
X0202478Y0122075D03*
X0214078Y0095475D03*
X0213378Y0069575D03*
X0197078Y0056175D03*
X0201778Y0041875D03*
X0188878Y0035275D03*
X0169278Y0052075D03*
X0165778Y0082175D03*
X0108378Y0084275D03*
X0100678Y0068875D03*
X0107678Y0048575D03*
X0102078Y0040875D03*
X0085978Y0037375D03*
X0076178Y0089175D03*
X0043378Y0116275D03*
X0118878Y0180175D03*
X0116778Y0211575D03*
X0116778Y0220875D03*
X0148978Y0205075D03*
X0153778Y0189975D03*
X0201778Y0159475D03*
X0216178Y0171475D03*
X0220378Y0202575D03*
X0220378Y0213075D03*
X0218578Y0224275D03*
D23*
X0147578Y0184175D03*
M02*
