G75*
%MOIN*%
%OFA0B0*%
%FSLAX25Y25*%
%IPPOS*%
%LPD*%
%AMOC8*
5,1,8,0,0,1.08239X$1,22.5*
%
%ADD10C,0.00500*%
%ADD11C,0.00000*%
D10*
X0028578Y0021275D02*
X0028578Y0237575D01*
X0236478Y0236875D01*
X0238578Y0019875D01*
X0028578Y0021275D01*
D11*
X0049878Y0149575D02*
X0049880Y0149736D01*
X0049886Y0149896D01*
X0049896Y0150057D01*
X0049910Y0150217D01*
X0049928Y0150377D01*
X0049949Y0150536D01*
X0049975Y0150695D01*
X0050005Y0150853D01*
X0050038Y0151010D01*
X0050076Y0151167D01*
X0050117Y0151322D01*
X0050162Y0151476D01*
X0050211Y0151629D01*
X0050264Y0151781D01*
X0050320Y0151932D01*
X0050381Y0152081D01*
X0050444Y0152229D01*
X0050512Y0152375D01*
X0050583Y0152519D01*
X0050657Y0152661D01*
X0050735Y0152802D01*
X0050817Y0152940D01*
X0050902Y0153077D01*
X0050990Y0153211D01*
X0051082Y0153343D01*
X0051177Y0153473D01*
X0051275Y0153601D01*
X0051376Y0153726D01*
X0051480Y0153848D01*
X0051587Y0153968D01*
X0051697Y0154085D01*
X0051810Y0154200D01*
X0051926Y0154311D01*
X0052045Y0154420D01*
X0052166Y0154525D01*
X0052290Y0154628D01*
X0052416Y0154728D01*
X0052544Y0154824D01*
X0052675Y0154917D01*
X0052809Y0155007D01*
X0052944Y0155094D01*
X0053082Y0155177D01*
X0053221Y0155257D01*
X0053363Y0155333D01*
X0053506Y0155406D01*
X0053651Y0155475D01*
X0053798Y0155541D01*
X0053946Y0155603D01*
X0054096Y0155661D01*
X0054247Y0155716D01*
X0054400Y0155767D01*
X0054554Y0155814D01*
X0054709Y0155857D01*
X0054865Y0155896D01*
X0055021Y0155932D01*
X0055179Y0155963D01*
X0055337Y0155991D01*
X0055496Y0156015D01*
X0055656Y0156035D01*
X0055816Y0156051D01*
X0055976Y0156063D01*
X0056137Y0156071D01*
X0056298Y0156075D01*
X0056458Y0156075D01*
X0056619Y0156071D01*
X0056780Y0156063D01*
X0056940Y0156051D01*
X0057100Y0156035D01*
X0057260Y0156015D01*
X0057419Y0155991D01*
X0057577Y0155963D01*
X0057735Y0155932D01*
X0057891Y0155896D01*
X0058047Y0155857D01*
X0058202Y0155814D01*
X0058356Y0155767D01*
X0058509Y0155716D01*
X0058660Y0155661D01*
X0058810Y0155603D01*
X0058958Y0155541D01*
X0059105Y0155475D01*
X0059250Y0155406D01*
X0059393Y0155333D01*
X0059535Y0155257D01*
X0059674Y0155177D01*
X0059812Y0155094D01*
X0059947Y0155007D01*
X0060081Y0154917D01*
X0060212Y0154824D01*
X0060340Y0154728D01*
X0060466Y0154628D01*
X0060590Y0154525D01*
X0060711Y0154420D01*
X0060830Y0154311D01*
X0060946Y0154200D01*
X0061059Y0154085D01*
X0061169Y0153968D01*
X0061276Y0153848D01*
X0061380Y0153726D01*
X0061481Y0153601D01*
X0061579Y0153473D01*
X0061674Y0153343D01*
X0061766Y0153211D01*
X0061854Y0153077D01*
X0061939Y0152940D01*
X0062021Y0152802D01*
X0062099Y0152661D01*
X0062173Y0152519D01*
X0062244Y0152375D01*
X0062312Y0152229D01*
X0062375Y0152081D01*
X0062436Y0151932D01*
X0062492Y0151781D01*
X0062545Y0151629D01*
X0062594Y0151476D01*
X0062639Y0151322D01*
X0062680Y0151167D01*
X0062718Y0151010D01*
X0062751Y0150853D01*
X0062781Y0150695D01*
X0062807Y0150536D01*
X0062828Y0150377D01*
X0062846Y0150217D01*
X0062860Y0150057D01*
X0062870Y0149896D01*
X0062876Y0149736D01*
X0062878Y0149575D01*
X0062876Y0149414D01*
X0062870Y0149254D01*
X0062860Y0149093D01*
X0062846Y0148933D01*
X0062828Y0148773D01*
X0062807Y0148614D01*
X0062781Y0148455D01*
X0062751Y0148297D01*
X0062718Y0148140D01*
X0062680Y0147983D01*
X0062639Y0147828D01*
X0062594Y0147674D01*
X0062545Y0147521D01*
X0062492Y0147369D01*
X0062436Y0147218D01*
X0062375Y0147069D01*
X0062312Y0146921D01*
X0062244Y0146775D01*
X0062173Y0146631D01*
X0062099Y0146489D01*
X0062021Y0146348D01*
X0061939Y0146210D01*
X0061854Y0146073D01*
X0061766Y0145939D01*
X0061674Y0145807D01*
X0061579Y0145677D01*
X0061481Y0145549D01*
X0061380Y0145424D01*
X0061276Y0145302D01*
X0061169Y0145182D01*
X0061059Y0145065D01*
X0060946Y0144950D01*
X0060830Y0144839D01*
X0060711Y0144730D01*
X0060590Y0144625D01*
X0060466Y0144522D01*
X0060340Y0144422D01*
X0060212Y0144326D01*
X0060081Y0144233D01*
X0059947Y0144143D01*
X0059812Y0144056D01*
X0059674Y0143973D01*
X0059535Y0143893D01*
X0059393Y0143817D01*
X0059250Y0143744D01*
X0059105Y0143675D01*
X0058958Y0143609D01*
X0058810Y0143547D01*
X0058660Y0143489D01*
X0058509Y0143434D01*
X0058356Y0143383D01*
X0058202Y0143336D01*
X0058047Y0143293D01*
X0057891Y0143254D01*
X0057735Y0143218D01*
X0057577Y0143187D01*
X0057419Y0143159D01*
X0057260Y0143135D01*
X0057100Y0143115D01*
X0056940Y0143099D01*
X0056780Y0143087D01*
X0056619Y0143079D01*
X0056458Y0143075D01*
X0056298Y0143075D01*
X0056137Y0143079D01*
X0055976Y0143087D01*
X0055816Y0143099D01*
X0055656Y0143115D01*
X0055496Y0143135D01*
X0055337Y0143159D01*
X0055179Y0143187D01*
X0055021Y0143218D01*
X0054865Y0143254D01*
X0054709Y0143293D01*
X0054554Y0143336D01*
X0054400Y0143383D01*
X0054247Y0143434D01*
X0054096Y0143489D01*
X0053946Y0143547D01*
X0053798Y0143609D01*
X0053651Y0143675D01*
X0053506Y0143744D01*
X0053363Y0143817D01*
X0053221Y0143893D01*
X0053082Y0143973D01*
X0052944Y0144056D01*
X0052809Y0144143D01*
X0052675Y0144233D01*
X0052544Y0144326D01*
X0052416Y0144422D01*
X0052290Y0144522D01*
X0052166Y0144625D01*
X0052045Y0144730D01*
X0051926Y0144839D01*
X0051810Y0144950D01*
X0051697Y0145065D01*
X0051587Y0145182D01*
X0051480Y0145302D01*
X0051376Y0145424D01*
X0051275Y0145549D01*
X0051177Y0145677D01*
X0051082Y0145807D01*
X0050990Y0145939D01*
X0050902Y0146073D01*
X0050817Y0146210D01*
X0050735Y0146348D01*
X0050657Y0146489D01*
X0050583Y0146631D01*
X0050512Y0146775D01*
X0050444Y0146921D01*
X0050381Y0147069D01*
X0050320Y0147218D01*
X0050264Y0147369D01*
X0050211Y0147521D01*
X0050162Y0147674D01*
X0050117Y0147828D01*
X0050076Y0147983D01*
X0050038Y0148140D01*
X0050005Y0148297D01*
X0049975Y0148455D01*
X0049949Y0148614D01*
X0049928Y0148773D01*
X0049910Y0148933D01*
X0049896Y0149093D01*
X0049886Y0149254D01*
X0049880Y0149414D01*
X0049878Y0149575D01*
M02*
