G75*
%MOIN*%
%OFA0B0*%
%FSLAX25Y25*%
%IPPOS*%
%LPD*%
%AMOC8*
5,1,8,0,0,1.08239X$1,22.5*
%
%ADD10C,0.00500*%
%ADD11C,0.00600*%
%ADD12C,0.00200*%
%ADD13R,0.03000X0.02500*%
%ADD14R,0.05000X0.11000*%
%ADD15C,0.00000*%
%ADD16C,0.00700*%
%ADD17C,0.01000*%
%ADD18C,0.00800*%
%ADD19C,0.00400*%
D10*
X0028578Y0021275D02*
X0028578Y0237575D01*
X0236478Y0236875D01*
X0238578Y0019875D01*
X0028578Y0021275D01*
X0123828Y0099825D02*
X0123828Y0104328D01*
X0126080Y0104328D01*
X0126831Y0103578D01*
X0126831Y0102076D01*
X0126080Y0101326D01*
X0123828Y0101326D01*
X0125330Y0101326D02*
X0126831Y0099825D01*
X0128432Y0102076D02*
X0131435Y0102076D01*
X0130684Y0099825D02*
X0130684Y0104328D01*
X0128432Y0102076D01*
X0128180Y0084428D02*
X0125928Y0084428D01*
X0125928Y0079925D01*
X0125928Y0081426D02*
X0128180Y0081426D01*
X0128931Y0082176D01*
X0128931Y0083678D01*
X0128180Y0084428D01*
X0130532Y0083678D02*
X0131283Y0084428D01*
X0132784Y0084428D01*
X0133535Y0083678D01*
X0133535Y0082927D01*
X0132784Y0082176D01*
X0133535Y0081426D01*
X0133535Y0080675D01*
X0132784Y0079925D01*
X0131283Y0079925D01*
X0130532Y0080675D01*
X0128931Y0079925D02*
X0127430Y0081426D01*
X0132034Y0082176D02*
X0132784Y0082176D01*
X0133484Y0072928D02*
X0131983Y0072928D01*
X0131232Y0072178D01*
X0129631Y0072178D02*
X0129631Y0070676D01*
X0128880Y0069926D01*
X0126628Y0069926D01*
X0126628Y0068425D02*
X0126628Y0072928D01*
X0128880Y0072928D01*
X0129631Y0072178D01*
X0128130Y0069926D02*
X0129631Y0068425D01*
X0131232Y0068425D02*
X0134235Y0071427D01*
X0134235Y0072178D01*
X0133484Y0072928D01*
X0134235Y0068425D02*
X0131232Y0068425D01*
X0132734Y0057228D02*
X0131232Y0055727D01*
X0129631Y0054976D02*
X0128880Y0054226D01*
X0126628Y0054226D01*
X0126628Y0052725D02*
X0126628Y0057228D01*
X0128880Y0057228D01*
X0129631Y0056478D01*
X0129631Y0054976D01*
X0128130Y0054226D02*
X0129631Y0052725D01*
X0131232Y0052725D02*
X0134235Y0052725D01*
X0132734Y0052725D02*
X0132734Y0057228D01*
X0194225Y0072375D02*
X0194975Y0071625D01*
X0195726Y0071625D01*
X0196477Y0072375D01*
X0196477Y0073876D01*
X0197227Y0074627D01*
X0197978Y0074627D01*
X0198728Y0073876D01*
X0198728Y0072375D01*
X0197978Y0071625D01*
X0197877Y0070058D02*
X0198627Y0069308D01*
X0198627Y0067056D01*
X0198627Y0068557D02*
X0200128Y0070058D01*
X0197877Y0070058D02*
X0196375Y0070058D01*
X0195625Y0069308D01*
X0195625Y0067056D01*
X0200128Y0067056D01*
X0200128Y0065455D02*
X0197126Y0065455D01*
X0195625Y0063953D01*
X0197126Y0062452D01*
X0200128Y0062452D01*
X0197877Y0062452D02*
X0197877Y0065455D01*
X0195625Y0060851D02*
X0195625Y0057848D01*
X0195625Y0059349D02*
X0200128Y0059349D01*
X0199378Y0056247D02*
X0198627Y0056247D01*
X0197877Y0055496D01*
X0197877Y0053995D01*
X0197126Y0053244D01*
X0196375Y0053244D01*
X0195625Y0053995D01*
X0195625Y0055496D01*
X0196375Y0056247D01*
X0199378Y0056247D02*
X0200128Y0055496D01*
X0200128Y0053995D01*
X0199378Y0053244D01*
X0200128Y0051643D02*
X0200128Y0048640D01*
X0195625Y0048640D01*
X0195625Y0051643D01*
X0197877Y0050141D02*
X0197877Y0048640D01*
X0197877Y0047039D02*
X0196375Y0047039D01*
X0195625Y0046288D01*
X0195625Y0044036D01*
X0200128Y0044036D01*
X0198627Y0044036D02*
X0198627Y0046288D01*
X0197877Y0047039D01*
X0198627Y0045538D02*
X0200128Y0047039D01*
X0195625Y0042435D02*
X0200128Y0039432D01*
X0200128Y0037831D02*
X0200128Y0034828D01*
X0200128Y0036330D02*
X0195625Y0036330D01*
X0197126Y0034828D01*
X0196375Y0033227D02*
X0195625Y0032476D01*
X0195625Y0030975D01*
X0196375Y0030225D01*
X0197126Y0030225D01*
X0197877Y0030975D01*
X0197877Y0032476D01*
X0198627Y0033227D01*
X0199378Y0033227D01*
X0200128Y0032476D01*
X0200128Y0030975D01*
X0199378Y0030225D01*
X0195625Y0071660D02*
X0195625Y0074662D01*
X0194975Y0074627D02*
X0194225Y0073876D01*
X0194225Y0072375D01*
X0195625Y0073161D02*
X0200128Y0073161D01*
X0198728Y0076228D02*
X0195726Y0079231D01*
X0194975Y0079231D01*
X0194225Y0078480D01*
X0194225Y0076979D01*
X0194975Y0076228D01*
X0198728Y0076228D02*
X0198728Y0079231D01*
X0198728Y0080832D02*
X0194225Y0083835D01*
X0194225Y0085436D02*
X0194225Y0087688D01*
X0194975Y0088439D01*
X0196477Y0088439D01*
X0197227Y0087688D01*
X0197227Y0085436D01*
X0198728Y0085436D02*
X0194225Y0085436D01*
X0197227Y0086938D02*
X0198728Y0088439D01*
X0198728Y0090040D02*
X0198728Y0093043D01*
X0198728Y0094644D02*
X0198728Y0096896D01*
X0197978Y0097647D01*
X0197227Y0097647D01*
X0196477Y0096896D01*
X0196477Y0094644D01*
X0198728Y0094644D02*
X0194225Y0094644D01*
X0194225Y0096896D01*
X0194975Y0097647D01*
X0195726Y0097647D01*
X0196477Y0096896D01*
X0194975Y0099248D02*
X0197978Y0099248D01*
X0198728Y0099999D01*
X0198728Y0101500D01*
X0197978Y0102251D01*
X0194975Y0102251D01*
X0194225Y0101500D01*
X0194225Y0099999D01*
X0194975Y0099248D01*
X0194975Y0103852D02*
X0194225Y0104603D01*
X0194225Y0106104D01*
X0194975Y0106855D01*
X0197978Y0106855D01*
X0198728Y0106104D01*
X0198728Y0104603D01*
X0197978Y0103852D01*
X0194975Y0103852D01*
X0194225Y0108456D02*
X0194225Y0111458D01*
X0194225Y0109957D02*
X0198728Y0109957D01*
X0205125Y0125425D02*
X0209628Y0125425D01*
X0209628Y0128427D01*
X0209628Y0130028D02*
X0209628Y0133031D01*
X0209628Y0134632D02*
X0209628Y0136884D01*
X0208878Y0137635D01*
X0205875Y0137635D01*
X0205125Y0136884D01*
X0205125Y0134632D01*
X0209628Y0134632D01*
X0207377Y0131530D02*
X0207377Y0130028D01*
X0209628Y0130028D02*
X0205125Y0130028D01*
X0205125Y0133031D01*
X0205875Y0139236D02*
X0205125Y0139987D01*
X0205125Y0141488D01*
X0205875Y0142239D01*
X0206626Y0142239D01*
X0209628Y0139236D01*
X0209628Y0142239D01*
X0209628Y0155425D02*
X0205125Y0155425D01*
X0209628Y0155425D02*
X0209628Y0158427D01*
X0209628Y0160028D02*
X0209628Y0163031D01*
X0209628Y0164632D02*
X0209628Y0166884D01*
X0208878Y0167635D01*
X0205875Y0167635D01*
X0205125Y0166884D01*
X0205125Y0164632D01*
X0209628Y0164632D01*
X0207377Y0161530D02*
X0207377Y0160028D01*
X0209628Y0160028D02*
X0205125Y0160028D01*
X0205125Y0163031D01*
X0206626Y0169236D02*
X0205125Y0170738D01*
X0209628Y0170738D01*
X0209628Y0172239D02*
X0209628Y0169236D01*
X0210828Y0173425D02*
X0210828Y0176427D01*
X0210828Y0174926D02*
X0206325Y0174926D01*
X0207826Y0173425D01*
X0201828Y0177925D02*
X0201828Y0179426D01*
X0201828Y0178675D02*
X0197325Y0178675D01*
X0197325Y0177925D02*
X0197325Y0179426D01*
X0198075Y0180994D02*
X0197325Y0181744D01*
X0197325Y0183246D01*
X0198075Y0183996D01*
X0198826Y0183996D01*
X0201828Y0180994D01*
X0201828Y0183996D01*
X0201078Y0185598D02*
X0201828Y0186348D01*
X0201828Y0187850D01*
X0201078Y0188600D01*
X0201828Y0190202D02*
X0197325Y0190202D01*
X0198075Y0188600D02*
X0197325Y0187850D01*
X0197325Y0186348D01*
X0198075Y0185598D01*
X0201078Y0185598D01*
X0201828Y0190202D02*
X0201828Y0193204D01*
X0201078Y0194806D02*
X0201828Y0195556D01*
X0201828Y0197057D01*
X0201078Y0197808D01*
X0201828Y0199409D02*
X0197325Y0199409D01*
X0197325Y0201661D01*
X0198075Y0202412D01*
X0201078Y0202412D01*
X0201828Y0201661D01*
X0201828Y0199409D01*
X0198075Y0197808D02*
X0197325Y0197057D01*
X0197325Y0195556D01*
X0198075Y0194806D01*
X0201078Y0194806D01*
X0208577Y0218925D02*
X0208577Y0221927D01*
X0210828Y0221176D02*
X0206325Y0221176D01*
X0208577Y0218925D01*
X0167984Y0127428D02*
X0166483Y0127428D01*
X0165732Y0126678D01*
X0164131Y0126678D02*
X0163380Y0127428D01*
X0161879Y0127428D01*
X0161128Y0126678D01*
X0161128Y0123675D01*
X0161879Y0122925D01*
X0163380Y0122925D01*
X0164131Y0123675D01*
X0165732Y0122925D02*
X0168735Y0125927D01*
X0168735Y0126678D01*
X0167984Y0127428D01*
X0168735Y0122925D02*
X0165732Y0122925D01*
X0194225Y0093043D02*
X0194225Y0090040D01*
X0198728Y0090040D01*
X0196477Y0090040D02*
X0196477Y0091541D01*
X0133735Y0122925D02*
X0130732Y0122925D01*
X0132234Y0122925D02*
X0132234Y0127428D01*
X0130732Y0125927D01*
X0129131Y0126678D02*
X0128380Y0127428D01*
X0126879Y0127428D01*
X0126128Y0126678D01*
X0126128Y0123675D01*
X0126879Y0122925D01*
X0128380Y0122925D01*
X0129131Y0123675D01*
X0075027Y0170625D02*
X0072025Y0170625D01*
X0073526Y0170625D02*
X0073526Y0175128D01*
X0072025Y0173627D01*
X0070027Y0166128D02*
X0067024Y0166128D01*
X0067024Y0161625D01*
X0070027Y0161625D01*
X0068526Y0163876D02*
X0067024Y0163876D01*
X0065423Y0163126D02*
X0065423Y0162375D01*
X0064672Y0161625D01*
X0063171Y0161625D01*
X0062421Y0162375D01*
X0063171Y0163876D02*
X0064672Y0163876D01*
X0065423Y0163126D01*
X0065423Y0165378D02*
X0064672Y0166128D01*
X0063171Y0166128D01*
X0062421Y0165378D01*
X0062421Y0164627D01*
X0063171Y0163876D01*
X0060819Y0161625D02*
X0057817Y0161625D01*
X0057817Y0166128D01*
X0056215Y0166128D02*
X0056215Y0162375D01*
X0055465Y0161625D01*
X0053963Y0161625D01*
X0053213Y0162375D01*
X0053213Y0166128D01*
X0051611Y0165378D02*
X0051611Y0163876D01*
X0050861Y0163126D01*
X0048609Y0163126D01*
X0048609Y0161625D02*
X0048609Y0166128D01*
X0050861Y0166128D01*
X0051611Y0165378D01*
X0044631Y0200425D02*
X0041628Y0200425D01*
X0043130Y0200425D02*
X0043130Y0204928D01*
X0041628Y0203427D01*
X0048130Y0209425D02*
X0048130Y0213928D01*
X0049631Y0213928D02*
X0046628Y0213928D01*
X0051232Y0213928D02*
X0051232Y0209425D01*
X0054235Y0209425D01*
X0055836Y0209425D02*
X0055836Y0213928D01*
X0057338Y0212427D01*
X0058839Y0213928D01*
X0058839Y0209425D01*
X0060440Y0209425D02*
X0060440Y0213928D01*
X0062692Y0213928D01*
X0063443Y0213178D01*
X0063443Y0211676D01*
X0062692Y0210926D01*
X0060440Y0210926D01*
X0054235Y0213928D02*
X0051232Y0213928D01*
X0051232Y0211676D02*
X0052734Y0211676D01*
D11*
X0053878Y0207675D02*
X0048878Y0207675D01*
X0046378Y0205175D01*
X0046378Y0200175D01*
X0048878Y0197675D01*
X0053878Y0197675D01*
X0056378Y0200175D01*
X0058878Y0197675D01*
X0063878Y0197675D01*
X0066378Y0200175D01*
X0068878Y0197675D01*
X0073878Y0197675D01*
X0076378Y0200175D01*
X0076378Y0205175D01*
X0073878Y0207675D01*
X0068878Y0207675D01*
X0066378Y0205175D01*
X0063878Y0207675D01*
X0058878Y0207675D01*
X0056378Y0205175D01*
X0053878Y0207675D01*
X0053878Y0177875D02*
X0058878Y0177875D01*
X0061378Y0175375D01*
X0063878Y0177875D01*
X0068878Y0177875D01*
X0071378Y0175375D01*
X0071378Y0170375D01*
X0068878Y0167875D01*
X0063878Y0167875D01*
X0061378Y0170375D01*
X0058878Y0167875D01*
X0053878Y0167875D01*
X0051378Y0170375D01*
X0048878Y0167875D01*
X0043878Y0167875D01*
X0041378Y0170375D01*
X0041378Y0175375D01*
X0043878Y0177875D01*
X0048878Y0177875D01*
X0051378Y0175375D01*
X0053878Y0177875D01*
X0035878Y0163075D02*
X0035878Y0155575D01*
X0039378Y0155575D01*
X0039378Y0149575D01*
X0035878Y0149575D01*
X0035878Y0100575D01*
X0076878Y0100575D01*
X0076878Y0149575D01*
X0073378Y0149575D01*
X0073378Y0155575D01*
X0076878Y0155575D01*
X0076878Y0163075D01*
X0035878Y0163075D01*
X0109878Y0122675D02*
X0110878Y0122675D01*
X0110878Y0123675D01*
X0110878Y0122675D02*
X0111878Y0122675D01*
X0110878Y0122675D02*
X0110878Y0121675D01*
X0106378Y0117675D02*
X0106381Y0117920D01*
X0106390Y0118166D01*
X0106405Y0118411D01*
X0106426Y0118655D01*
X0106453Y0118899D01*
X0106486Y0119142D01*
X0106525Y0119385D01*
X0106570Y0119626D01*
X0106621Y0119866D01*
X0106678Y0120105D01*
X0106740Y0120342D01*
X0106809Y0120578D01*
X0106883Y0120812D01*
X0106963Y0121044D01*
X0107048Y0121274D01*
X0107139Y0121502D01*
X0107236Y0121727D01*
X0107338Y0121951D01*
X0107446Y0122171D01*
X0107559Y0122389D01*
X0107677Y0122604D01*
X0107801Y0122816D01*
X0107929Y0123025D01*
X0108063Y0123231D01*
X0108202Y0123433D01*
X0108346Y0123632D01*
X0108495Y0123827D01*
X0108648Y0124019D01*
X0108806Y0124207D01*
X0108968Y0124391D01*
X0109136Y0124570D01*
X0109307Y0124746D01*
X0109483Y0124917D01*
X0109662Y0125085D01*
X0109846Y0125247D01*
X0110034Y0125405D01*
X0110226Y0125558D01*
X0110421Y0125707D01*
X0110620Y0125851D01*
X0110822Y0125990D01*
X0111028Y0126124D01*
X0111237Y0126252D01*
X0111449Y0126376D01*
X0111664Y0126494D01*
X0111882Y0126607D01*
X0112102Y0126715D01*
X0112326Y0126817D01*
X0112551Y0126914D01*
X0112779Y0127005D01*
X0113009Y0127090D01*
X0113241Y0127170D01*
X0113475Y0127244D01*
X0113711Y0127313D01*
X0113948Y0127375D01*
X0114187Y0127432D01*
X0114427Y0127483D01*
X0114668Y0127528D01*
X0114911Y0127567D01*
X0115154Y0127600D01*
X0115398Y0127627D01*
X0115642Y0127648D01*
X0115887Y0127663D01*
X0116133Y0127672D01*
X0116378Y0127675D01*
X0116623Y0127672D01*
X0116869Y0127663D01*
X0117114Y0127648D01*
X0117358Y0127627D01*
X0117602Y0127600D01*
X0117845Y0127567D01*
X0118088Y0127528D01*
X0118329Y0127483D01*
X0118569Y0127432D01*
X0118808Y0127375D01*
X0119045Y0127313D01*
X0119281Y0127244D01*
X0119515Y0127170D01*
X0119747Y0127090D01*
X0119977Y0127005D01*
X0120205Y0126914D01*
X0120430Y0126817D01*
X0120654Y0126715D01*
X0120874Y0126607D01*
X0121092Y0126494D01*
X0121307Y0126376D01*
X0121519Y0126252D01*
X0121728Y0126124D01*
X0121934Y0125990D01*
X0122136Y0125851D01*
X0122335Y0125707D01*
X0122530Y0125558D01*
X0122722Y0125405D01*
X0122910Y0125247D01*
X0123094Y0125085D01*
X0123273Y0124917D01*
X0123449Y0124746D01*
X0123620Y0124570D01*
X0123788Y0124391D01*
X0123950Y0124207D01*
X0124108Y0124019D01*
X0124261Y0123827D01*
X0124410Y0123632D01*
X0124554Y0123433D01*
X0124693Y0123231D01*
X0124827Y0123025D01*
X0124955Y0122816D01*
X0125079Y0122604D01*
X0125197Y0122389D01*
X0125310Y0122171D01*
X0125418Y0121951D01*
X0125520Y0121727D01*
X0125617Y0121502D01*
X0125708Y0121274D01*
X0125793Y0121044D01*
X0125873Y0120812D01*
X0125947Y0120578D01*
X0126016Y0120342D01*
X0126078Y0120105D01*
X0126135Y0119866D01*
X0126186Y0119626D01*
X0126231Y0119385D01*
X0126270Y0119142D01*
X0126303Y0118899D01*
X0126330Y0118655D01*
X0126351Y0118411D01*
X0126366Y0118166D01*
X0126375Y0117920D01*
X0126378Y0117675D01*
X0126375Y0117430D01*
X0126366Y0117184D01*
X0126351Y0116939D01*
X0126330Y0116695D01*
X0126303Y0116451D01*
X0126270Y0116208D01*
X0126231Y0115965D01*
X0126186Y0115724D01*
X0126135Y0115484D01*
X0126078Y0115245D01*
X0126016Y0115008D01*
X0125947Y0114772D01*
X0125873Y0114538D01*
X0125793Y0114306D01*
X0125708Y0114076D01*
X0125617Y0113848D01*
X0125520Y0113623D01*
X0125418Y0113399D01*
X0125310Y0113179D01*
X0125197Y0112961D01*
X0125079Y0112746D01*
X0124955Y0112534D01*
X0124827Y0112325D01*
X0124693Y0112119D01*
X0124554Y0111917D01*
X0124410Y0111718D01*
X0124261Y0111523D01*
X0124108Y0111331D01*
X0123950Y0111143D01*
X0123788Y0110959D01*
X0123620Y0110780D01*
X0123449Y0110604D01*
X0123273Y0110433D01*
X0123094Y0110265D01*
X0122910Y0110103D01*
X0122722Y0109945D01*
X0122530Y0109792D01*
X0122335Y0109643D01*
X0122136Y0109499D01*
X0121934Y0109360D01*
X0121728Y0109226D01*
X0121519Y0109098D01*
X0121307Y0108974D01*
X0121092Y0108856D01*
X0120874Y0108743D01*
X0120654Y0108635D01*
X0120430Y0108533D01*
X0120205Y0108436D01*
X0119977Y0108345D01*
X0119747Y0108260D01*
X0119515Y0108180D01*
X0119281Y0108106D01*
X0119045Y0108037D01*
X0118808Y0107975D01*
X0118569Y0107918D01*
X0118329Y0107867D01*
X0118088Y0107822D01*
X0117845Y0107783D01*
X0117602Y0107750D01*
X0117358Y0107723D01*
X0117114Y0107702D01*
X0116869Y0107687D01*
X0116623Y0107678D01*
X0116378Y0107675D01*
X0116133Y0107678D01*
X0115887Y0107687D01*
X0115642Y0107702D01*
X0115398Y0107723D01*
X0115154Y0107750D01*
X0114911Y0107783D01*
X0114668Y0107822D01*
X0114427Y0107867D01*
X0114187Y0107918D01*
X0113948Y0107975D01*
X0113711Y0108037D01*
X0113475Y0108106D01*
X0113241Y0108180D01*
X0113009Y0108260D01*
X0112779Y0108345D01*
X0112551Y0108436D01*
X0112326Y0108533D01*
X0112102Y0108635D01*
X0111882Y0108743D01*
X0111664Y0108856D01*
X0111449Y0108974D01*
X0111237Y0109098D01*
X0111028Y0109226D01*
X0110822Y0109360D01*
X0110620Y0109499D01*
X0110421Y0109643D01*
X0110226Y0109792D01*
X0110034Y0109945D01*
X0109846Y0110103D01*
X0109662Y0110265D01*
X0109483Y0110433D01*
X0109307Y0110604D01*
X0109136Y0110780D01*
X0108968Y0110959D01*
X0108806Y0111143D01*
X0108648Y0111331D01*
X0108495Y0111523D01*
X0108346Y0111718D01*
X0108202Y0111917D01*
X0108063Y0112119D01*
X0107929Y0112325D01*
X0107801Y0112534D01*
X0107677Y0112746D01*
X0107559Y0112961D01*
X0107446Y0113179D01*
X0107338Y0113399D01*
X0107236Y0113623D01*
X0107139Y0113848D01*
X0107048Y0114076D01*
X0106963Y0114306D01*
X0106883Y0114538D01*
X0106809Y0114772D01*
X0106740Y0115008D01*
X0106678Y0115245D01*
X0106621Y0115484D01*
X0106570Y0115724D01*
X0106525Y0115965D01*
X0106486Y0116208D01*
X0106453Y0116451D01*
X0106426Y0116695D01*
X0106405Y0116939D01*
X0106390Y0117184D01*
X0106381Y0117430D01*
X0106378Y0117675D01*
X0122078Y0098575D02*
X0123578Y0098575D01*
X0124078Y0098075D01*
X0143078Y0098075D01*
X0143578Y0098575D01*
X0145078Y0098575D01*
X0145138Y0098573D01*
X0145199Y0098568D01*
X0145258Y0098559D01*
X0145317Y0098546D01*
X0145376Y0098530D01*
X0145433Y0098510D01*
X0145488Y0098487D01*
X0145543Y0098460D01*
X0145595Y0098431D01*
X0145646Y0098398D01*
X0145695Y0098362D01*
X0145741Y0098324D01*
X0145785Y0098282D01*
X0145827Y0098238D01*
X0145865Y0098192D01*
X0145901Y0098143D01*
X0145934Y0098092D01*
X0145963Y0098040D01*
X0145990Y0097985D01*
X0146013Y0097930D01*
X0146033Y0097873D01*
X0146049Y0097814D01*
X0146062Y0097755D01*
X0146071Y0097696D01*
X0146076Y0097635D01*
X0146078Y0097575D01*
X0146078Y0090575D02*
X0146076Y0090515D01*
X0146071Y0090454D01*
X0146062Y0090395D01*
X0146049Y0090336D01*
X0146033Y0090277D01*
X0146013Y0090220D01*
X0145990Y0090165D01*
X0145963Y0090110D01*
X0145934Y0090058D01*
X0145901Y0090007D01*
X0145865Y0089958D01*
X0145827Y0089912D01*
X0145785Y0089868D01*
X0145741Y0089826D01*
X0145695Y0089788D01*
X0145646Y0089752D01*
X0145595Y0089719D01*
X0145543Y0089690D01*
X0145488Y0089663D01*
X0145433Y0089640D01*
X0145376Y0089620D01*
X0145317Y0089604D01*
X0145258Y0089591D01*
X0145199Y0089582D01*
X0145138Y0089577D01*
X0145078Y0089575D01*
X0143578Y0089575D01*
X0143078Y0090075D01*
X0124078Y0090075D01*
X0123578Y0089575D01*
X0122078Y0089575D01*
X0122018Y0089577D01*
X0121957Y0089582D01*
X0121898Y0089591D01*
X0121839Y0089604D01*
X0121780Y0089620D01*
X0121723Y0089640D01*
X0121668Y0089663D01*
X0121613Y0089690D01*
X0121561Y0089719D01*
X0121510Y0089752D01*
X0121461Y0089788D01*
X0121415Y0089826D01*
X0121371Y0089868D01*
X0121329Y0089912D01*
X0121291Y0089958D01*
X0121255Y0090007D01*
X0121222Y0090058D01*
X0121193Y0090110D01*
X0121166Y0090165D01*
X0121143Y0090220D01*
X0121123Y0090277D01*
X0121107Y0090336D01*
X0121094Y0090395D01*
X0121085Y0090454D01*
X0121080Y0090515D01*
X0121078Y0090575D01*
X0119673Y0085918D02*
X0125011Y0085918D01*
X0126078Y0084850D01*
X0126078Y0082715D01*
X0125011Y0081647D01*
X0119673Y0081647D01*
X0120741Y0079472D02*
X0119673Y0078405D01*
X0119673Y0076270D01*
X0120741Y0075202D01*
X0125011Y0075202D01*
X0126078Y0076270D01*
X0126078Y0078405D01*
X0125011Y0079472D01*
X0125678Y0078675D02*
X0124178Y0078675D01*
X0124118Y0078673D01*
X0124057Y0078668D01*
X0123998Y0078659D01*
X0123939Y0078646D01*
X0123880Y0078630D01*
X0123823Y0078610D01*
X0123768Y0078587D01*
X0123713Y0078560D01*
X0123661Y0078531D01*
X0123610Y0078498D01*
X0123561Y0078462D01*
X0123515Y0078424D01*
X0123471Y0078382D01*
X0123429Y0078338D01*
X0123391Y0078292D01*
X0123355Y0078243D01*
X0123322Y0078192D01*
X0123293Y0078140D01*
X0123266Y0078085D01*
X0123243Y0078030D01*
X0123223Y0077973D01*
X0123207Y0077914D01*
X0123194Y0077855D01*
X0123185Y0077796D01*
X0123180Y0077735D01*
X0123178Y0077675D01*
X0125678Y0078675D02*
X0126178Y0078175D01*
X0145178Y0078175D01*
X0145678Y0078675D01*
X0147178Y0078675D01*
X0147238Y0078673D01*
X0147299Y0078668D01*
X0147358Y0078659D01*
X0147417Y0078646D01*
X0147476Y0078630D01*
X0147533Y0078610D01*
X0147588Y0078587D01*
X0147643Y0078560D01*
X0147695Y0078531D01*
X0147746Y0078498D01*
X0147795Y0078462D01*
X0147841Y0078424D01*
X0147885Y0078382D01*
X0147927Y0078338D01*
X0147965Y0078292D01*
X0148001Y0078243D01*
X0148034Y0078192D01*
X0148063Y0078140D01*
X0148090Y0078085D01*
X0148113Y0078030D01*
X0148133Y0077973D01*
X0148149Y0077914D01*
X0148162Y0077855D01*
X0148171Y0077796D01*
X0148176Y0077735D01*
X0148178Y0077675D01*
X0148178Y0070675D02*
X0148176Y0070615D01*
X0148171Y0070554D01*
X0148162Y0070495D01*
X0148149Y0070436D01*
X0148133Y0070377D01*
X0148113Y0070320D01*
X0148090Y0070265D01*
X0148063Y0070210D01*
X0148034Y0070158D01*
X0148001Y0070107D01*
X0147965Y0070058D01*
X0147927Y0070012D01*
X0147885Y0069968D01*
X0147841Y0069926D01*
X0147795Y0069888D01*
X0147746Y0069852D01*
X0147695Y0069819D01*
X0147643Y0069790D01*
X0147588Y0069763D01*
X0147533Y0069740D01*
X0147476Y0069720D01*
X0147417Y0069704D01*
X0147358Y0069691D01*
X0147299Y0069682D01*
X0147238Y0069677D01*
X0147178Y0069675D01*
X0145678Y0069675D01*
X0145178Y0070175D01*
X0126178Y0070175D01*
X0125678Y0069675D01*
X0124178Y0069675D01*
X0124118Y0069677D01*
X0124057Y0069682D01*
X0123998Y0069691D01*
X0123939Y0069704D01*
X0123880Y0069720D01*
X0123823Y0069740D01*
X0123768Y0069763D01*
X0123713Y0069790D01*
X0123661Y0069819D01*
X0123610Y0069852D01*
X0123561Y0069888D01*
X0123515Y0069926D01*
X0123471Y0069968D01*
X0123429Y0070012D01*
X0123391Y0070058D01*
X0123355Y0070107D01*
X0123322Y0070158D01*
X0123293Y0070210D01*
X0123266Y0070265D01*
X0123243Y0070320D01*
X0123223Y0070377D01*
X0123207Y0070436D01*
X0123194Y0070495D01*
X0123185Y0070554D01*
X0123180Y0070615D01*
X0123178Y0070675D01*
X0121808Y0070892D02*
X0119673Y0073027D01*
X0126078Y0073027D01*
X0126078Y0068756D02*
X0119673Y0068756D01*
X0121808Y0070892D01*
X0119673Y0066581D02*
X0119673Y0062311D01*
X0126078Y0062311D01*
X0126078Y0066581D01*
X0126378Y0067175D02*
X0126878Y0066675D01*
X0145878Y0066675D01*
X0146378Y0067175D01*
X0147878Y0067175D01*
X0147938Y0067173D01*
X0147999Y0067168D01*
X0148058Y0067159D01*
X0148117Y0067146D01*
X0148176Y0067130D01*
X0148233Y0067110D01*
X0148288Y0067087D01*
X0148343Y0067060D01*
X0148395Y0067031D01*
X0148446Y0066998D01*
X0148495Y0066962D01*
X0148541Y0066924D01*
X0148585Y0066882D01*
X0148627Y0066838D01*
X0148665Y0066792D01*
X0148701Y0066743D01*
X0148734Y0066692D01*
X0148763Y0066640D01*
X0148790Y0066585D01*
X0148813Y0066530D01*
X0148833Y0066473D01*
X0148849Y0066414D01*
X0148862Y0066355D01*
X0148871Y0066296D01*
X0148876Y0066235D01*
X0148878Y0066175D01*
X0148878Y0059175D02*
X0148876Y0059115D01*
X0148871Y0059054D01*
X0148862Y0058995D01*
X0148849Y0058936D01*
X0148833Y0058877D01*
X0148813Y0058820D01*
X0148790Y0058765D01*
X0148763Y0058710D01*
X0148734Y0058658D01*
X0148701Y0058607D01*
X0148665Y0058558D01*
X0148627Y0058512D01*
X0148585Y0058468D01*
X0148541Y0058426D01*
X0148495Y0058388D01*
X0148446Y0058352D01*
X0148395Y0058319D01*
X0148343Y0058290D01*
X0148288Y0058263D01*
X0148233Y0058240D01*
X0148176Y0058220D01*
X0148117Y0058204D01*
X0148058Y0058191D01*
X0147999Y0058182D01*
X0147938Y0058177D01*
X0147878Y0058175D01*
X0146378Y0058175D01*
X0145878Y0058675D01*
X0126878Y0058675D01*
X0126378Y0058175D01*
X0124878Y0058175D01*
X0124818Y0058177D01*
X0124757Y0058182D01*
X0124698Y0058191D01*
X0124639Y0058204D01*
X0124580Y0058220D01*
X0124523Y0058240D01*
X0124468Y0058263D01*
X0124413Y0058290D01*
X0124361Y0058319D01*
X0124310Y0058352D01*
X0124261Y0058388D01*
X0124215Y0058426D01*
X0124171Y0058468D01*
X0124129Y0058512D01*
X0124091Y0058558D01*
X0124055Y0058607D01*
X0124022Y0058658D01*
X0123993Y0058710D01*
X0123966Y0058765D01*
X0123943Y0058820D01*
X0123923Y0058877D01*
X0123907Y0058936D01*
X0123894Y0058995D01*
X0123885Y0059054D01*
X0123880Y0059115D01*
X0123878Y0059175D01*
X0125011Y0060136D02*
X0120741Y0060136D01*
X0119673Y0059068D01*
X0119673Y0055866D01*
X0126078Y0055866D01*
X0126078Y0059068D01*
X0125011Y0060136D01*
X0122876Y0062311D02*
X0122876Y0064446D01*
X0123878Y0066175D02*
X0123880Y0066235D01*
X0123885Y0066296D01*
X0123894Y0066355D01*
X0123907Y0066414D01*
X0123923Y0066473D01*
X0123943Y0066530D01*
X0123966Y0066585D01*
X0123993Y0066640D01*
X0124022Y0066692D01*
X0124055Y0066743D01*
X0124091Y0066792D01*
X0124129Y0066838D01*
X0124171Y0066882D01*
X0124215Y0066924D01*
X0124261Y0066962D01*
X0124310Y0066998D01*
X0124361Y0067031D01*
X0124413Y0067060D01*
X0124468Y0067087D01*
X0124523Y0067110D01*
X0124580Y0067130D01*
X0124639Y0067146D01*
X0124698Y0067159D01*
X0124757Y0067168D01*
X0124818Y0067173D01*
X0124878Y0067175D01*
X0126378Y0067175D01*
X0125011Y0053690D02*
X0120741Y0053690D01*
X0119673Y0052623D01*
X0119673Y0050488D01*
X0120741Y0049420D01*
X0125011Y0049420D01*
X0126078Y0050488D01*
X0126078Y0052623D01*
X0125011Y0053690D01*
X0124878Y0051475D02*
X0126378Y0051475D01*
X0126878Y0050975D01*
X0145878Y0050975D01*
X0146378Y0051475D01*
X0147878Y0051475D01*
X0147938Y0051473D01*
X0147999Y0051468D01*
X0148058Y0051459D01*
X0148117Y0051446D01*
X0148176Y0051430D01*
X0148233Y0051410D01*
X0148288Y0051387D01*
X0148343Y0051360D01*
X0148395Y0051331D01*
X0148446Y0051298D01*
X0148495Y0051262D01*
X0148541Y0051224D01*
X0148585Y0051182D01*
X0148627Y0051138D01*
X0148665Y0051092D01*
X0148701Y0051043D01*
X0148734Y0050992D01*
X0148763Y0050940D01*
X0148790Y0050885D01*
X0148813Y0050830D01*
X0148833Y0050773D01*
X0148849Y0050714D01*
X0148862Y0050655D01*
X0148871Y0050596D01*
X0148876Y0050535D01*
X0148878Y0050475D01*
X0148878Y0043475D02*
X0148876Y0043415D01*
X0148871Y0043354D01*
X0148862Y0043295D01*
X0148849Y0043236D01*
X0148833Y0043177D01*
X0148813Y0043120D01*
X0148790Y0043065D01*
X0148763Y0043010D01*
X0148734Y0042958D01*
X0148701Y0042907D01*
X0148665Y0042858D01*
X0148627Y0042812D01*
X0148585Y0042768D01*
X0148541Y0042726D01*
X0148495Y0042688D01*
X0148446Y0042652D01*
X0148395Y0042619D01*
X0148343Y0042590D01*
X0148288Y0042563D01*
X0148233Y0042540D01*
X0148176Y0042520D01*
X0148117Y0042504D01*
X0148058Y0042491D01*
X0147999Y0042482D01*
X0147938Y0042477D01*
X0147878Y0042475D01*
X0146378Y0042475D01*
X0145878Y0042975D01*
X0126878Y0042975D01*
X0126378Y0042475D01*
X0124878Y0042475D01*
X0124818Y0042477D01*
X0124757Y0042482D01*
X0124698Y0042491D01*
X0124639Y0042504D01*
X0124580Y0042520D01*
X0124523Y0042540D01*
X0124468Y0042563D01*
X0124413Y0042590D01*
X0124361Y0042619D01*
X0124310Y0042652D01*
X0124261Y0042688D01*
X0124215Y0042726D01*
X0124171Y0042768D01*
X0124129Y0042812D01*
X0124091Y0042858D01*
X0124055Y0042907D01*
X0124022Y0042958D01*
X0123993Y0043010D01*
X0123966Y0043065D01*
X0123943Y0043120D01*
X0123923Y0043177D01*
X0123907Y0043236D01*
X0123894Y0043295D01*
X0123885Y0043354D01*
X0123880Y0043415D01*
X0123878Y0043475D01*
X0126078Y0042975D02*
X0119673Y0042975D01*
X0126078Y0047245D01*
X0119673Y0047245D01*
X0123878Y0050475D02*
X0123880Y0050535D01*
X0123885Y0050596D01*
X0123894Y0050655D01*
X0123907Y0050714D01*
X0123923Y0050773D01*
X0123943Y0050830D01*
X0123966Y0050885D01*
X0123993Y0050940D01*
X0124022Y0050992D01*
X0124055Y0051043D01*
X0124091Y0051092D01*
X0124129Y0051138D01*
X0124171Y0051182D01*
X0124215Y0051224D01*
X0124261Y0051262D01*
X0124310Y0051298D01*
X0124361Y0051331D01*
X0124413Y0051360D01*
X0124468Y0051387D01*
X0124523Y0051410D01*
X0124580Y0051430D01*
X0124639Y0051446D01*
X0124698Y0051459D01*
X0124757Y0051468D01*
X0124818Y0051473D01*
X0124878Y0051475D01*
X0121078Y0097575D02*
X0121080Y0097635D01*
X0121085Y0097696D01*
X0121094Y0097755D01*
X0121107Y0097814D01*
X0121123Y0097873D01*
X0121143Y0097930D01*
X0121166Y0097985D01*
X0121193Y0098040D01*
X0121222Y0098092D01*
X0121255Y0098143D01*
X0121291Y0098192D01*
X0121329Y0098238D01*
X0121371Y0098282D01*
X0121415Y0098324D01*
X0121461Y0098362D01*
X0121510Y0098398D01*
X0121561Y0098431D01*
X0121613Y0098460D01*
X0121668Y0098487D01*
X0121723Y0098510D01*
X0121780Y0098530D01*
X0121839Y0098546D01*
X0121898Y0098559D01*
X0121957Y0098568D01*
X0122018Y0098573D01*
X0122078Y0098575D01*
X0145878Y0121675D02*
X0145878Y0122675D01*
X0145878Y0123675D01*
X0145878Y0122675D02*
X0146878Y0122675D01*
X0145878Y0122675D02*
X0144878Y0122675D01*
X0141378Y0117675D02*
X0141381Y0117920D01*
X0141390Y0118166D01*
X0141405Y0118411D01*
X0141426Y0118655D01*
X0141453Y0118899D01*
X0141486Y0119142D01*
X0141525Y0119385D01*
X0141570Y0119626D01*
X0141621Y0119866D01*
X0141678Y0120105D01*
X0141740Y0120342D01*
X0141809Y0120578D01*
X0141883Y0120812D01*
X0141963Y0121044D01*
X0142048Y0121274D01*
X0142139Y0121502D01*
X0142236Y0121727D01*
X0142338Y0121951D01*
X0142446Y0122171D01*
X0142559Y0122389D01*
X0142677Y0122604D01*
X0142801Y0122816D01*
X0142929Y0123025D01*
X0143063Y0123231D01*
X0143202Y0123433D01*
X0143346Y0123632D01*
X0143495Y0123827D01*
X0143648Y0124019D01*
X0143806Y0124207D01*
X0143968Y0124391D01*
X0144136Y0124570D01*
X0144307Y0124746D01*
X0144483Y0124917D01*
X0144662Y0125085D01*
X0144846Y0125247D01*
X0145034Y0125405D01*
X0145226Y0125558D01*
X0145421Y0125707D01*
X0145620Y0125851D01*
X0145822Y0125990D01*
X0146028Y0126124D01*
X0146237Y0126252D01*
X0146449Y0126376D01*
X0146664Y0126494D01*
X0146882Y0126607D01*
X0147102Y0126715D01*
X0147326Y0126817D01*
X0147551Y0126914D01*
X0147779Y0127005D01*
X0148009Y0127090D01*
X0148241Y0127170D01*
X0148475Y0127244D01*
X0148711Y0127313D01*
X0148948Y0127375D01*
X0149187Y0127432D01*
X0149427Y0127483D01*
X0149668Y0127528D01*
X0149911Y0127567D01*
X0150154Y0127600D01*
X0150398Y0127627D01*
X0150642Y0127648D01*
X0150887Y0127663D01*
X0151133Y0127672D01*
X0151378Y0127675D01*
X0151623Y0127672D01*
X0151869Y0127663D01*
X0152114Y0127648D01*
X0152358Y0127627D01*
X0152602Y0127600D01*
X0152845Y0127567D01*
X0153088Y0127528D01*
X0153329Y0127483D01*
X0153569Y0127432D01*
X0153808Y0127375D01*
X0154045Y0127313D01*
X0154281Y0127244D01*
X0154515Y0127170D01*
X0154747Y0127090D01*
X0154977Y0127005D01*
X0155205Y0126914D01*
X0155430Y0126817D01*
X0155654Y0126715D01*
X0155874Y0126607D01*
X0156092Y0126494D01*
X0156307Y0126376D01*
X0156519Y0126252D01*
X0156728Y0126124D01*
X0156934Y0125990D01*
X0157136Y0125851D01*
X0157335Y0125707D01*
X0157530Y0125558D01*
X0157722Y0125405D01*
X0157910Y0125247D01*
X0158094Y0125085D01*
X0158273Y0124917D01*
X0158449Y0124746D01*
X0158620Y0124570D01*
X0158788Y0124391D01*
X0158950Y0124207D01*
X0159108Y0124019D01*
X0159261Y0123827D01*
X0159410Y0123632D01*
X0159554Y0123433D01*
X0159693Y0123231D01*
X0159827Y0123025D01*
X0159955Y0122816D01*
X0160079Y0122604D01*
X0160197Y0122389D01*
X0160310Y0122171D01*
X0160418Y0121951D01*
X0160520Y0121727D01*
X0160617Y0121502D01*
X0160708Y0121274D01*
X0160793Y0121044D01*
X0160873Y0120812D01*
X0160947Y0120578D01*
X0161016Y0120342D01*
X0161078Y0120105D01*
X0161135Y0119866D01*
X0161186Y0119626D01*
X0161231Y0119385D01*
X0161270Y0119142D01*
X0161303Y0118899D01*
X0161330Y0118655D01*
X0161351Y0118411D01*
X0161366Y0118166D01*
X0161375Y0117920D01*
X0161378Y0117675D01*
X0161375Y0117430D01*
X0161366Y0117184D01*
X0161351Y0116939D01*
X0161330Y0116695D01*
X0161303Y0116451D01*
X0161270Y0116208D01*
X0161231Y0115965D01*
X0161186Y0115724D01*
X0161135Y0115484D01*
X0161078Y0115245D01*
X0161016Y0115008D01*
X0160947Y0114772D01*
X0160873Y0114538D01*
X0160793Y0114306D01*
X0160708Y0114076D01*
X0160617Y0113848D01*
X0160520Y0113623D01*
X0160418Y0113399D01*
X0160310Y0113179D01*
X0160197Y0112961D01*
X0160079Y0112746D01*
X0159955Y0112534D01*
X0159827Y0112325D01*
X0159693Y0112119D01*
X0159554Y0111917D01*
X0159410Y0111718D01*
X0159261Y0111523D01*
X0159108Y0111331D01*
X0158950Y0111143D01*
X0158788Y0110959D01*
X0158620Y0110780D01*
X0158449Y0110604D01*
X0158273Y0110433D01*
X0158094Y0110265D01*
X0157910Y0110103D01*
X0157722Y0109945D01*
X0157530Y0109792D01*
X0157335Y0109643D01*
X0157136Y0109499D01*
X0156934Y0109360D01*
X0156728Y0109226D01*
X0156519Y0109098D01*
X0156307Y0108974D01*
X0156092Y0108856D01*
X0155874Y0108743D01*
X0155654Y0108635D01*
X0155430Y0108533D01*
X0155205Y0108436D01*
X0154977Y0108345D01*
X0154747Y0108260D01*
X0154515Y0108180D01*
X0154281Y0108106D01*
X0154045Y0108037D01*
X0153808Y0107975D01*
X0153569Y0107918D01*
X0153329Y0107867D01*
X0153088Y0107822D01*
X0152845Y0107783D01*
X0152602Y0107750D01*
X0152358Y0107723D01*
X0152114Y0107702D01*
X0151869Y0107687D01*
X0151623Y0107678D01*
X0151378Y0107675D01*
X0151133Y0107678D01*
X0150887Y0107687D01*
X0150642Y0107702D01*
X0150398Y0107723D01*
X0150154Y0107750D01*
X0149911Y0107783D01*
X0149668Y0107822D01*
X0149427Y0107867D01*
X0149187Y0107918D01*
X0148948Y0107975D01*
X0148711Y0108037D01*
X0148475Y0108106D01*
X0148241Y0108180D01*
X0148009Y0108260D01*
X0147779Y0108345D01*
X0147551Y0108436D01*
X0147326Y0108533D01*
X0147102Y0108635D01*
X0146882Y0108743D01*
X0146664Y0108856D01*
X0146449Y0108974D01*
X0146237Y0109098D01*
X0146028Y0109226D01*
X0145822Y0109360D01*
X0145620Y0109499D01*
X0145421Y0109643D01*
X0145226Y0109792D01*
X0145034Y0109945D01*
X0144846Y0110103D01*
X0144662Y0110265D01*
X0144483Y0110433D01*
X0144307Y0110604D01*
X0144136Y0110780D01*
X0143968Y0110959D01*
X0143806Y0111143D01*
X0143648Y0111331D01*
X0143495Y0111523D01*
X0143346Y0111718D01*
X0143202Y0111917D01*
X0143063Y0112119D01*
X0142929Y0112325D01*
X0142801Y0112534D01*
X0142677Y0112746D01*
X0142559Y0112961D01*
X0142446Y0113179D01*
X0142338Y0113399D01*
X0142236Y0113623D01*
X0142139Y0113848D01*
X0142048Y0114076D01*
X0141963Y0114306D01*
X0141883Y0114538D01*
X0141809Y0114772D01*
X0141740Y0115008D01*
X0141678Y0115245D01*
X0141621Y0115484D01*
X0141570Y0115724D01*
X0141525Y0115965D01*
X0141486Y0116208D01*
X0141453Y0116451D01*
X0141426Y0116695D01*
X0141405Y0116939D01*
X0141390Y0117184D01*
X0141381Y0117430D01*
X0141378Y0117675D01*
X0134578Y0167075D02*
X0133578Y0167075D01*
X0133078Y0167575D01*
X0124078Y0167575D01*
X0123578Y0167075D01*
X0122578Y0167075D01*
X0122518Y0167077D01*
X0122457Y0167082D01*
X0122398Y0167091D01*
X0122339Y0167104D01*
X0122280Y0167120D01*
X0122223Y0167140D01*
X0122168Y0167163D01*
X0122113Y0167190D01*
X0122061Y0167219D01*
X0122010Y0167252D01*
X0121961Y0167288D01*
X0121915Y0167326D01*
X0121871Y0167368D01*
X0121829Y0167412D01*
X0121791Y0167458D01*
X0121755Y0167507D01*
X0121722Y0167558D01*
X0121693Y0167610D01*
X0121666Y0167665D01*
X0121643Y0167720D01*
X0121623Y0167777D01*
X0121607Y0167836D01*
X0121594Y0167895D01*
X0121585Y0167954D01*
X0121580Y0168015D01*
X0121578Y0168075D01*
X0121578Y0173075D02*
X0121580Y0173135D01*
X0121585Y0173196D01*
X0121594Y0173255D01*
X0121607Y0173314D01*
X0121623Y0173373D01*
X0121643Y0173430D01*
X0121666Y0173485D01*
X0121693Y0173540D01*
X0121722Y0173592D01*
X0121755Y0173643D01*
X0121791Y0173692D01*
X0121829Y0173738D01*
X0121871Y0173782D01*
X0121915Y0173824D01*
X0121961Y0173862D01*
X0122010Y0173898D01*
X0122061Y0173931D01*
X0122113Y0173960D01*
X0122168Y0173987D01*
X0122223Y0174010D01*
X0122280Y0174030D01*
X0122339Y0174046D01*
X0122398Y0174059D01*
X0122457Y0174068D01*
X0122518Y0174073D01*
X0122578Y0174075D01*
X0123578Y0174075D01*
X0124078Y0173575D01*
X0133078Y0173575D01*
X0133578Y0174075D01*
X0134578Y0174075D01*
X0134638Y0174073D01*
X0134699Y0174068D01*
X0134758Y0174059D01*
X0134817Y0174046D01*
X0134876Y0174030D01*
X0134933Y0174010D01*
X0134988Y0173987D01*
X0135043Y0173960D01*
X0135095Y0173931D01*
X0135146Y0173898D01*
X0135195Y0173862D01*
X0135241Y0173824D01*
X0135285Y0173782D01*
X0135327Y0173738D01*
X0135365Y0173692D01*
X0135401Y0173643D01*
X0135434Y0173592D01*
X0135463Y0173540D01*
X0135490Y0173485D01*
X0135513Y0173430D01*
X0135533Y0173373D01*
X0135549Y0173314D01*
X0135562Y0173255D01*
X0135571Y0173196D01*
X0135576Y0173135D01*
X0135578Y0173075D01*
X0135578Y0168075D02*
X0135576Y0168015D01*
X0135571Y0167954D01*
X0135562Y0167895D01*
X0135549Y0167836D01*
X0135533Y0167777D01*
X0135513Y0167720D01*
X0135490Y0167665D01*
X0135463Y0167610D01*
X0135434Y0167558D01*
X0135401Y0167507D01*
X0135365Y0167458D01*
X0135327Y0167412D01*
X0135285Y0167368D01*
X0135241Y0167326D01*
X0135195Y0167288D01*
X0135146Y0167252D01*
X0135095Y0167219D01*
X0135043Y0167190D01*
X0134988Y0167163D01*
X0134933Y0167140D01*
X0134876Y0167120D01*
X0134817Y0167104D01*
X0134758Y0167091D01*
X0134699Y0167082D01*
X0134638Y0167077D01*
X0134578Y0167075D01*
X0135678Y0186275D02*
X0136678Y0186275D01*
X0136738Y0186277D01*
X0136799Y0186282D01*
X0136858Y0186291D01*
X0136917Y0186304D01*
X0136976Y0186320D01*
X0137033Y0186340D01*
X0137088Y0186363D01*
X0137143Y0186390D01*
X0137195Y0186419D01*
X0137246Y0186452D01*
X0137295Y0186488D01*
X0137341Y0186526D01*
X0137385Y0186568D01*
X0137427Y0186612D01*
X0137465Y0186658D01*
X0137501Y0186707D01*
X0137534Y0186758D01*
X0137563Y0186810D01*
X0137590Y0186865D01*
X0137613Y0186920D01*
X0137633Y0186977D01*
X0137649Y0187036D01*
X0137662Y0187095D01*
X0137671Y0187154D01*
X0137676Y0187215D01*
X0137678Y0187275D01*
X0135678Y0186275D02*
X0135178Y0186775D01*
X0126178Y0186775D01*
X0125678Y0186275D01*
X0124678Y0186275D01*
X0124618Y0186277D01*
X0124557Y0186282D01*
X0124498Y0186291D01*
X0124439Y0186304D01*
X0124380Y0186320D01*
X0124323Y0186340D01*
X0124268Y0186363D01*
X0124213Y0186390D01*
X0124161Y0186419D01*
X0124110Y0186452D01*
X0124061Y0186488D01*
X0124015Y0186526D01*
X0123971Y0186568D01*
X0123929Y0186612D01*
X0123891Y0186658D01*
X0123855Y0186707D01*
X0123822Y0186758D01*
X0123793Y0186810D01*
X0123766Y0186865D01*
X0123743Y0186920D01*
X0123723Y0186977D01*
X0123707Y0187036D01*
X0123694Y0187095D01*
X0123685Y0187154D01*
X0123680Y0187215D01*
X0123678Y0187275D01*
X0123678Y0192275D02*
X0123680Y0192335D01*
X0123685Y0192396D01*
X0123694Y0192455D01*
X0123707Y0192514D01*
X0123723Y0192573D01*
X0123743Y0192630D01*
X0123766Y0192685D01*
X0123793Y0192740D01*
X0123822Y0192792D01*
X0123855Y0192843D01*
X0123891Y0192892D01*
X0123929Y0192938D01*
X0123971Y0192982D01*
X0124015Y0193024D01*
X0124061Y0193062D01*
X0124110Y0193098D01*
X0124161Y0193131D01*
X0124213Y0193160D01*
X0124268Y0193187D01*
X0124323Y0193210D01*
X0124380Y0193230D01*
X0124439Y0193246D01*
X0124498Y0193259D01*
X0124557Y0193268D01*
X0124618Y0193273D01*
X0124678Y0193275D01*
X0125678Y0193275D01*
X0126178Y0192775D01*
X0135178Y0192775D01*
X0135678Y0193275D01*
X0136678Y0193275D01*
X0136738Y0193273D01*
X0136799Y0193268D01*
X0136858Y0193259D01*
X0136917Y0193246D01*
X0136976Y0193230D01*
X0137033Y0193210D01*
X0137088Y0193187D01*
X0137143Y0193160D01*
X0137195Y0193131D01*
X0137246Y0193098D01*
X0137295Y0193062D01*
X0137341Y0193024D01*
X0137385Y0192982D01*
X0137427Y0192938D01*
X0137465Y0192892D01*
X0137501Y0192843D01*
X0137534Y0192792D01*
X0137563Y0192740D01*
X0137590Y0192685D01*
X0137613Y0192630D01*
X0137633Y0192573D01*
X0137649Y0192514D01*
X0137662Y0192455D01*
X0137671Y0192396D01*
X0137676Y0192335D01*
X0137678Y0192275D01*
X0203578Y0190175D02*
X0203578Y0195175D01*
X0206078Y0197675D01*
X0203578Y0200175D01*
X0203578Y0205175D01*
X0206078Y0207675D01*
X0203578Y0210175D01*
X0203578Y0215175D01*
X0206078Y0217675D01*
X0211078Y0217675D01*
X0213578Y0215175D01*
X0213578Y0210175D01*
X0211078Y0207675D01*
X0213578Y0205175D01*
X0213578Y0200175D01*
X0211078Y0197675D01*
X0213578Y0195175D01*
X0213578Y0190175D01*
X0211078Y0187675D01*
X0213578Y0185175D01*
X0213578Y0180175D01*
X0211078Y0177675D01*
X0206078Y0177675D01*
X0203578Y0180175D01*
X0203578Y0185175D01*
X0206078Y0187675D01*
X0203578Y0190175D01*
X0217378Y0147675D02*
X0217376Y0147523D01*
X0217370Y0147372D01*
X0217361Y0147221D01*
X0217347Y0147069D01*
X0217330Y0146919D01*
X0217309Y0146769D01*
X0217284Y0146619D01*
X0217256Y0146470D01*
X0217223Y0146322D01*
X0217187Y0146175D01*
X0217148Y0146028D01*
X0217104Y0145883D01*
X0217057Y0145739D01*
X0217006Y0145596D01*
X0216952Y0145455D01*
X0216894Y0145314D01*
X0216833Y0145176D01*
X0216768Y0145039D01*
X0216699Y0144903D01*
X0216628Y0144770D01*
X0216553Y0144638D01*
X0216474Y0144508D01*
X0216393Y0144381D01*
X0216308Y0144255D01*
X0216220Y0144131D01*
X0216129Y0144010D01*
X0216035Y0143891D01*
X0215937Y0143775D01*
X0215837Y0143661D01*
X0215735Y0143549D01*
X0215629Y0143441D01*
X0215521Y0143335D01*
X0215410Y0143231D01*
X0215296Y0143131D01*
X0215180Y0143033D01*
X0215061Y0142939D01*
X0205378Y0147674D02*
X0205380Y0147828D01*
X0205386Y0147982D01*
X0205396Y0148136D01*
X0205410Y0148290D01*
X0205427Y0148443D01*
X0205449Y0148595D01*
X0205475Y0148747D01*
X0205504Y0148899D01*
X0205538Y0149049D01*
X0205575Y0149199D01*
X0205616Y0149347D01*
X0205661Y0149495D01*
X0205710Y0149641D01*
X0205762Y0149786D01*
X0205818Y0149929D01*
X0205878Y0150072D01*
X0205941Y0150212D01*
X0206008Y0150351D01*
X0206079Y0150488D01*
X0206153Y0150623D01*
X0206230Y0150756D01*
X0206311Y0150888D01*
X0206395Y0151017D01*
X0206483Y0151144D01*
X0206574Y0151268D01*
X0206667Y0151390D01*
X0206765Y0151510D01*
X0206865Y0151627D01*
X0206968Y0151742D01*
X0207074Y0151854D01*
X0207182Y0151963D01*
X0207294Y0152069D01*
X0207408Y0152173D01*
X0207525Y0152273D01*
X0207644Y0152371D01*
X0207766Y0152465D01*
X0207891Y0152556D01*
X0205378Y0147675D02*
X0205380Y0147525D01*
X0205386Y0147374D01*
X0205395Y0147224D01*
X0205408Y0147075D01*
X0205425Y0146925D01*
X0205446Y0146776D01*
X0205470Y0146628D01*
X0205498Y0146480D01*
X0205530Y0146333D01*
X0205565Y0146187D01*
X0205605Y0146042D01*
X0205647Y0145898D01*
X0205694Y0145755D01*
X0205744Y0145613D01*
X0205797Y0145472D01*
X0205854Y0145333D01*
X0205914Y0145195D01*
X0205978Y0145059D01*
X0206045Y0144925D01*
X0206116Y0144792D01*
X0206190Y0144661D01*
X0206267Y0144532D01*
X0206348Y0144405D01*
X0206431Y0144280D01*
X0206518Y0144157D01*
X0206607Y0144036D01*
X0206700Y0143918D01*
X0206796Y0143802D01*
X0206894Y0143688D01*
X0206995Y0143577D01*
X0207100Y0143468D01*
X0207206Y0143363D01*
X0207316Y0143259D01*
X0207428Y0143159D01*
X0207542Y0143061D01*
X0207659Y0142967D01*
X0207778Y0142875D01*
X0217378Y0147674D02*
X0217376Y0147826D01*
X0217370Y0147977D01*
X0217361Y0148128D01*
X0217347Y0148280D01*
X0217330Y0148430D01*
X0217309Y0148580D01*
X0217284Y0148730D01*
X0217256Y0148879D01*
X0217223Y0149027D01*
X0217187Y0149174D01*
X0217148Y0149321D01*
X0217104Y0149466D01*
X0217057Y0149610D01*
X0217006Y0149753D01*
X0216952Y0149894D01*
X0216894Y0150035D01*
X0216833Y0150173D01*
X0216768Y0150310D01*
X0216699Y0150446D01*
X0216628Y0150579D01*
X0216553Y0150711D01*
X0216474Y0150841D01*
X0216393Y0150968D01*
X0216308Y0151094D01*
X0216220Y0151218D01*
X0216129Y0151339D01*
X0216035Y0151458D01*
X0215937Y0151574D01*
X0215837Y0151688D01*
X0215735Y0151800D01*
X0215629Y0151908D01*
X0215521Y0152014D01*
X0215410Y0152118D01*
X0215296Y0152218D01*
X0215180Y0152316D01*
X0215061Y0152410D01*
X0217378Y0117675D02*
X0217376Y0117523D01*
X0217370Y0117372D01*
X0217361Y0117221D01*
X0217347Y0117069D01*
X0217330Y0116919D01*
X0217309Y0116769D01*
X0217284Y0116619D01*
X0217256Y0116470D01*
X0217223Y0116322D01*
X0217187Y0116175D01*
X0217148Y0116028D01*
X0217104Y0115883D01*
X0217057Y0115739D01*
X0217006Y0115596D01*
X0216952Y0115455D01*
X0216894Y0115314D01*
X0216833Y0115176D01*
X0216768Y0115039D01*
X0216699Y0114903D01*
X0216628Y0114770D01*
X0216553Y0114638D01*
X0216474Y0114508D01*
X0216393Y0114381D01*
X0216308Y0114255D01*
X0216220Y0114131D01*
X0216129Y0114010D01*
X0216035Y0113891D01*
X0215937Y0113775D01*
X0215837Y0113661D01*
X0215735Y0113549D01*
X0215629Y0113441D01*
X0215521Y0113335D01*
X0215410Y0113231D01*
X0215296Y0113131D01*
X0215180Y0113033D01*
X0215061Y0112939D01*
X0205378Y0117674D02*
X0205380Y0117828D01*
X0205386Y0117982D01*
X0205396Y0118136D01*
X0205410Y0118290D01*
X0205427Y0118443D01*
X0205449Y0118595D01*
X0205475Y0118747D01*
X0205504Y0118899D01*
X0205538Y0119049D01*
X0205575Y0119199D01*
X0205616Y0119347D01*
X0205661Y0119495D01*
X0205710Y0119641D01*
X0205762Y0119786D01*
X0205818Y0119929D01*
X0205878Y0120072D01*
X0205941Y0120212D01*
X0206008Y0120351D01*
X0206079Y0120488D01*
X0206153Y0120623D01*
X0206230Y0120756D01*
X0206311Y0120888D01*
X0206395Y0121017D01*
X0206483Y0121144D01*
X0206574Y0121268D01*
X0206667Y0121390D01*
X0206765Y0121510D01*
X0206865Y0121627D01*
X0206968Y0121742D01*
X0207074Y0121854D01*
X0207182Y0121963D01*
X0207294Y0122069D01*
X0207408Y0122173D01*
X0207525Y0122273D01*
X0207644Y0122371D01*
X0207766Y0122465D01*
X0207891Y0122556D01*
X0205378Y0117675D02*
X0205380Y0117525D01*
X0205386Y0117374D01*
X0205395Y0117224D01*
X0205408Y0117075D01*
X0205425Y0116925D01*
X0205446Y0116776D01*
X0205470Y0116628D01*
X0205498Y0116480D01*
X0205530Y0116333D01*
X0205565Y0116187D01*
X0205605Y0116042D01*
X0205647Y0115898D01*
X0205694Y0115755D01*
X0205744Y0115613D01*
X0205797Y0115472D01*
X0205854Y0115333D01*
X0205914Y0115195D01*
X0205978Y0115059D01*
X0206045Y0114925D01*
X0206116Y0114792D01*
X0206190Y0114661D01*
X0206267Y0114532D01*
X0206348Y0114405D01*
X0206431Y0114280D01*
X0206518Y0114157D01*
X0206607Y0114036D01*
X0206700Y0113918D01*
X0206796Y0113802D01*
X0206894Y0113688D01*
X0206995Y0113577D01*
X0207100Y0113468D01*
X0207206Y0113363D01*
X0207316Y0113259D01*
X0207428Y0113159D01*
X0207542Y0113061D01*
X0207659Y0112967D01*
X0207778Y0112875D01*
X0217378Y0117674D02*
X0217376Y0117826D01*
X0217370Y0117977D01*
X0217361Y0118128D01*
X0217347Y0118280D01*
X0217330Y0118430D01*
X0217309Y0118580D01*
X0217284Y0118730D01*
X0217256Y0118879D01*
X0217223Y0119027D01*
X0217187Y0119174D01*
X0217148Y0119321D01*
X0217104Y0119466D01*
X0217057Y0119610D01*
X0217006Y0119753D01*
X0216952Y0119894D01*
X0216894Y0120035D01*
X0216833Y0120173D01*
X0216768Y0120310D01*
X0216699Y0120446D01*
X0216628Y0120579D01*
X0216553Y0120711D01*
X0216474Y0120841D01*
X0216393Y0120968D01*
X0216308Y0121094D01*
X0216220Y0121218D01*
X0216129Y0121339D01*
X0216035Y0121458D01*
X0215937Y0121574D01*
X0215837Y0121688D01*
X0215735Y0121800D01*
X0215629Y0121908D01*
X0215521Y0122014D01*
X0215410Y0122118D01*
X0215296Y0122218D01*
X0215180Y0122316D01*
X0215061Y0122410D01*
X0216478Y0096375D02*
X0210478Y0096375D01*
X0210478Y0095375D01*
X0209478Y0095375D01*
X0216478Y0095375D02*
X0217478Y0095375D01*
X0216478Y0095375D02*
X0216478Y0096375D01*
X0225478Y0091875D02*
X0225478Y0087875D01*
X0225478Y0078375D01*
X0225478Y0074875D01*
X0217478Y0071375D02*
X0216478Y0071375D01*
X0216478Y0070375D01*
X0210478Y0070375D01*
X0210478Y0071375D01*
X0209478Y0071375D01*
X0201478Y0074875D02*
X0201478Y0078375D01*
X0201478Y0088375D01*
X0201478Y0091875D01*
X0212478Y0083375D02*
X0212480Y0083438D01*
X0212486Y0083500D01*
X0212496Y0083562D01*
X0212509Y0083624D01*
X0212527Y0083684D01*
X0212548Y0083743D01*
X0212573Y0083801D01*
X0212602Y0083857D01*
X0212634Y0083911D01*
X0212669Y0083963D01*
X0212707Y0084012D01*
X0212749Y0084060D01*
X0212793Y0084104D01*
X0212841Y0084146D01*
X0212890Y0084184D01*
X0212942Y0084219D01*
X0212996Y0084251D01*
X0213052Y0084280D01*
X0213110Y0084305D01*
X0213169Y0084326D01*
X0213229Y0084344D01*
X0213291Y0084357D01*
X0213353Y0084367D01*
X0213415Y0084373D01*
X0213478Y0084375D01*
X0213541Y0084373D01*
X0213603Y0084367D01*
X0213665Y0084357D01*
X0213727Y0084344D01*
X0213787Y0084326D01*
X0213846Y0084305D01*
X0213904Y0084280D01*
X0213960Y0084251D01*
X0214014Y0084219D01*
X0214066Y0084184D01*
X0214115Y0084146D01*
X0214163Y0084104D01*
X0214207Y0084060D01*
X0214249Y0084012D01*
X0214287Y0083963D01*
X0214322Y0083911D01*
X0214354Y0083857D01*
X0214383Y0083801D01*
X0214408Y0083743D01*
X0214429Y0083684D01*
X0214447Y0083624D01*
X0214460Y0083562D01*
X0214470Y0083500D01*
X0214476Y0083438D01*
X0214478Y0083375D01*
X0214476Y0083312D01*
X0214470Y0083250D01*
X0214460Y0083188D01*
X0214447Y0083126D01*
X0214429Y0083066D01*
X0214408Y0083007D01*
X0214383Y0082949D01*
X0214354Y0082893D01*
X0214322Y0082839D01*
X0214287Y0082787D01*
X0214249Y0082738D01*
X0214207Y0082690D01*
X0214163Y0082646D01*
X0214115Y0082604D01*
X0214066Y0082566D01*
X0214014Y0082531D01*
X0213960Y0082499D01*
X0213904Y0082470D01*
X0213846Y0082445D01*
X0213787Y0082424D01*
X0213727Y0082406D01*
X0213665Y0082393D01*
X0213603Y0082383D01*
X0213541Y0082377D01*
X0213478Y0082375D01*
X0213415Y0082377D01*
X0213353Y0082383D01*
X0213291Y0082393D01*
X0213229Y0082406D01*
X0213169Y0082424D01*
X0213110Y0082445D01*
X0213052Y0082470D01*
X0212996Y0082499D01*
X0212942Y0082531D01*
X0212890Y0082566D01*
X0212841Y0082604D01*
X0212793Y0082646D01*
X0212749Y0082690D01*
X0212707Y0082738D01*
X0212669Y0082787D01*
X0212634Y0082839D01*
X0212602Y0082893D01*
X0212573Y0082949D01*
X0212548Y0083007D01*
X0212527Y0083066D01*
X0212509Y0083126D01*
X0212496Y0083188D01*
X0212486Y0083250D01*
X0212480Y0083312D01*
X0212478Y0083375D01*
X0206478Y0083375D02*
X0206480Y0083547D01*
X0206486Y0083718D01*
X0206497Y0083890D01*
X0206512Y0084061D01*
X0206531Y0084232D01*
X0206554Y0084402D01*
X0206581Y0084572D01*
X0206613Y0084741D01*
X0206648Y0084909D01*
X0206688Y0085076D01*
X0206732Y0085242D01*
X0206779Y0085407D01*
X0206831Y0085571D01*
X0206887Y0085733D01*
X0206947Y0085894D01*
X0207011Y0086054D01*
X0207079Y0086212D01*
X0207150Y0086368D01*
X0207225Y0086522D01*
X0207305Y0086675D01*
X0207387Y0086825D01*
X0207474Y0086974D01*
X0207564Y0087120D01*
X0207658Y0087264D01*
X0207755Y0087406D01*
X0207856Y0087545D01*
X0207960Y0087682D01*
X0208067Y0087816D01*
X0208178Y0087947D01*
X0208291Y0088076D01*
X0208408Y0088202D01*
X0208528Y0088325D01*
X0208651Y0088445D01*
X0208777Y0088562D01*
X0208906Y0088675D01*
X0209037Y0088786D01*
X0209171Y0088893D01*
X0209308Y0088997D01*
X0209447Y0089098D01*
X0209589Y0089195D01*
X0209733Y0089289D01*
X0209879Y0089379D01*
X0210028Y0089466D01*
X0210178Y0089548D01*
X0210331Y0089628D01*
X0210485Y0089703D01*
X0210641Y0089774D01*
X0210799Y0089842D01*
X0210959Y0089906D01*
X0211120Y0089966D01*
X0211282Y0090022D01*
X0211446Y0090074D01*
X0211611Y0090121D01*
X0211777Y0090165D01*
X0211944Y0090205D01*
X0212112Y0090240D01*
X0212281Y0090272D01*
X0212451Y0090299D01*
X0212621Y0090322D01*
X0212792Y0090341D01*
X0212963Y0090356D01*
X0213135Y0090367D01*
X0213306Y0090373D01*
X0213478Y0090375D01*
X0213650Y0090373D01*
X0213821Y0090367D01*
X0213993Y0090356D01*
X0214164Y0090341D01*
X0214335Y0090322D01*
X0214505Y0090299D01*
X0214675Y0090272D01*
X0214844Y0090240D01*
X0215012Y0090205D01*
X0215179Y0090165D01*
X0215345Y0090121D01*
X0215510Y0090074D01*
X0215674Y0090022D01*
X0215836Y0089966D01*
X0215997Y0089906D01*
X0216157Y0089842D01*
X0216315Y0089774D01*
X0216471Y0089703D01*
X0216625Y0089628D01*
X0216778Y0089548D01*
X0216928Y0089466D01*
X0217077Y0089379D01*
X0217223Y0089289D01*
X0217367Y0089195D01*
X0217509Y0089098D01*
X0217648Y0088997D01*
X0217785Y0088893D01*
X0217919Y0088786D01*
X0218050Y0088675D01*
X0218179Y0088562D01*
X0218305Y0088445D01*
X0218428Y0088325D01*
X0218548Y0088202D01*
X0218665Y0088076D01*
X0218778Y0087947D01*
X0218889Y0087816D01*
X0218996Y0087682D01*
X0219100Y0087545D01*
X0219201Y0087406D01*
X0219298Y0087264D01*
X0219392Y0087120D01*
X0219482Y0086974D01*
X0219569Y0086825D01*
X0219651Y0086675D01*
X0219731Y0086522D01*
X0219806Y0086368D01*
X0219877Y0086212D01*
X0219945Y0086054D01*
X0220009Y0085894D01*
X0220069Y0085733D01*
X0220125Y0085571D01*
X0220177Y0085407D01*
X0220224Y0085242D01*
X0220268Y0085076D01*
X0220308Y0084909D01*
X0220343Y0084741D01*
X0220375Y0084572D01*
X0220402Y0084402D01*
X0220425Y0084232D01*
X0220444Y0084061D01*
X0220459Y0083890D01*
X0220470Y0083718D01*
X0220476Y0083547D01*
X0220478Y0083375D01*
X0220476Y0083203D01*
X0220470Y0083032D01*
X0220459Y0082860D01*
X0220444Y0082689D01*
X0220425Y0082518D01*
X0220402Y0082348D01*
X0220375Y0082178D01*
X0220343Y0082009D01*
X0220308Y0081841D01*
X0220268Y0081674D01*
X0220224Y0081508D01*
X0220177Y0081343D01*
X0220125Y0081179D01*
X0220069Y0081017D01*
X0220009Y0080856D01*
X0219945Y0080696D01*
X0219877Y0080538D01*
X0219806Y0080382D01*
X0219731Y0080228D01*
X0219651Y0080075D01*
X0219569Y0079925D01*
X0219482Y0079776D01*
X0219392Y0079630D01*
X0219298Y0079486D01*
X0219201Y0079344D01*
X0219100Y0079205D01*
X0218996Y0079068D01*
X0218889Y0078934D01*
X0218778Y0078803D01*
X0218665Y0078674D01*
X0218548Y0078548D01*
X0218428Y0078425D01*
X0218305Y0078305D01*
X0218179Y0078188D01*
X0218050Y0078075D01*
X0217919Y0077964D01*
X0217785Y0077857D01*
X0217648Y0077753D01*
X0217509Y0077652D01*
X0217367Y0077555D01*
X0217223Y0077461D01*
X0217077Y0077371D01*
X0216928Y0077284D01*
X0216778Y0077202D01*
X0216625Y0077122D01*
X0216471Y0077047D01*
X0216315Y0076976D01*
X0216157Y0076908D01*
X0215997Y0076844D01*
X0215836Y0076784D01*
X0215674Y0076728D01*
X0215510Y0076676D01*
X0215345Y0076629D01*
X0215179Y0076585D01*
X0215012Y0076545D01*
X0214844Y0076510D01*
X0214675Y0076478D01*
X0214505Y0076451D01*
X0214335Y0076428D01*
X0214164Y0076409D01*
X0213993Y0076394D01*
X0213821Y0076383D01*
X0213650Y0076377D01*
X0213478Y0076375D01*
X0213306Y0076377D01*
X0213135Y0076383D01*
X0212963Y0076394D01*
X0212792Y0076409D01*
X0212621Y0076428D01*
X0212451Y0076451D01*
X0212281Y0076478D01*
X0212112Y0076510D01*
X0211944Y0076545D01*
X0211777Y0076585D01*
X0211611Y0076629D01*
X0211446Y0076676D01*
X0211282Y0076728D01*
X0211120Y0076784D01*
X0210959Y0076844D01*
X0210799Y0076908D01*
X0210641Y0076976D01*
X0210485Y0077047D01*
X0210331Y0077122D01*
X0210178Y0077202D01*
X0210028Y0077284D01*
X0209879Y0077371D01*
X0209733Y0077461D01*
X0209589Y0077555D01*
X0209447Y0077652D01*
X0209308Y0077753D01*
X0209171Y0077857D01*
X0209037Y0077964D01*
X0208906Y0078075D01*
X0208777Y0078188D01*
X0208651Y0078305D01*
X0208528Y0078425D01*
X0208408Y0078548D01*
X0208291Y0078674D01*
X0208178Y0078803D01*
X0208067Y0078934D01*
X0207960Y0079068D01*
X0207856Y0079205D01*
X0207755Y0079344D01*
X0207658Y0079486D01*
X0207564Y0079630D01*
X0207474Y0079776D01*
X0207387Y0079925D01*
X0207305Y0080075D01*
X0207225Y0080228D01*
X0207150Y0080382D01*
X0207079Y0080538D01*
X0207011Y0080696D01*
X0206947Y0080856D01*
X0206887Y0081017D01*
X0206831Y0081179D01*
X0206779Y0081343D01*
X0206732Y0081508D01*
X0206688Y0081674D01*
X0206648Y0081841D01*
X0206613Y0082009D01*
X0206581Y0082178D01*
X0206554Y0082348D01*
X0206531Y0082518D01*
X0206512Y0082689D01*
X0206497Y0082860D01*
X0206486Y0083032D01*
X0206480Y0083203D01*
X0206478Y0083375D01*
X0211878Y0054975D02*
X0211878Y0053975D01*
X0210878Y0053975D01*
X0211878Y0054975D02*
X0217878Y0054975D01*
X0217878Y0053975D01*
X0218878Y0053975D01*
X0226878Y0050475D02*
X0226878Y0046475D01*
X0226878Y0036975D01*
X0226878Y0033475D01*
X0218878Y0029975D02*
X0217878Y0029975D01*
X0217878Y0028975D01*
X0211878Y0028975D01*
X0211878Y0029975D01*
X0210878Y0029975D01*
X0202878Y0033475D02*
X0202878Y0036975D01*
X0202878Y0046975D01*
X0202878Y0050475D01*
X0213878Y0041975D02*
X0213880Y0042038D01*
X0213886Y0042100D01*
X0213896Y0042162D01*
X0213909Y0042224D01*
X0213927Y0042284D01*
X0213948Y0042343D01*
X0213973Y0042401D01*
X0214002Y0042457D01*
X0214034Y0042511D01*
X0214069Y0042563D01*
X0214107Y0042612D01*
X0214149Y0042660D01*
X0214193Y0042704D01*
X0214241Y0042746D01*
X0214290Y0042784D01*
X0214342Y0042819D01*
X0214396Y0042851D01*
X0214452Y0042880D01*
X0214510Y0042905D01*
X0214569Y0042926D01*
X0214629Y0042944D01*
X0214691Y0042957D01*
X0214753Y0042967D01*
X0214815Y0042973D01*
X0214878Y0042975D01*
X0214941Y0042973D01*
X0215003Y0042967D01*
X0215065Y0042957D01*
X0215127Y0042944D01*
X0215187Y0042926D01*
X0215246Y0042905D01*
X0215304Y0042880D01*
X0215360Y0042851D01*
X0215414Y0042819D01*
X0215466Y0042784D01*
X0215515Y0042746D01*
X0215563Y0042704D01*
X0215607Y0042660D01*
X0215649Y0042612D01*
X0215687Y0042563D01*
X0215722Y0042511D01*
X0215754Y0042457D01*
X0215783Y0042401D01*
X0215808Y0042343D01*
X0215829Y0042284D01*
X0215847Y0042224D01*
X0215860Y0042162D01*
X0215870Y0042100D01*
X0215876Y0042038D01*
X0215878Y0041975D01*
X0215876Y0041912D01*
X0215870Y0041850D01*
X0215860Y0041788D01*
X0215847Y0041726D01*
X0215829Y0041666D01*
X0215808Y0041607D01*
X0215783Y0041549D01*
X0215754Y0041493D01*
X0215722Y0041439D01*
X0215687Y0041387D01*
X0215649Y0041338D01*
X0215607Y0041290D01*
X0215563Y0041246D01*
X0215515Y0041204D01*
X0215466Y0041166D01*
X0215414Y0041131D01*
X0215360Y0041099D01*
X0215304Y0041070D01*
X0215246Y0041045D01*
X0215187Y0041024D01*
X0215127Y0041006D01*
X0215065Y0040993D01*
X0215003Y0040983D01*
X0214941Y0040977D01*
X0214878Y0040975D01*
X0214815Y0040977D01*
X0214753Y0040983D01*
X0214691Y0040993D01*
X0214629Y0041006D01*
X0214569Y0041024D01*
X0214510Y0041045D01*
X0214452Y0041070D01*
X0214396Y0041099D01*
X0214342Y0041131D01*
X0214290Y0041166D01*
X0214241Y0041204D01*
X0214193Y0041246D01*
X0214149Y0041290D01*
X0214107Y0041338D01*
X0214069Y0041387D01*
X0214034Y0041439D01*
X0214002Y0041493D01*
X0213973Y0041549D01*
X0213948Y0041607D01*
X0213927Y0041666D01*
X0213909Y0041726D01*
X0213896Y0041788D01*
X0213886Y0041850D01*
X0213880Y0041912D01*
X0213878Y0041975D01*
X0207878Y0041975D02*
X0207880Y0042147D01*
X0207886Y0042318D01*
X0207897Y0042490D01*
X0207912Y0042661D01*
X0207931Y0042832D01*
X0207954Y0043002D01*
X0207981Y0043172D01*
X0208013Y0043341D01*
X0208048Y0043509D01*
X0208088Y0043676D01*
X0208132Y0043842D01*
X0208179Y0044007D01*
X0208231Y0044171D01*
X0208287Y0044333D01*
X0208347Y0044494D01*
X0208411Y0044654D01*
X0208479Y0044812D01*
X0208550Y0044968D01*
X0208625Y0045122D01*
X0208705Y0045275D01*
X0208787Y0045425D01*
X0208874Y0045574D01*
X0208964Y0045720D01*
X0209058Y0045864D01*
X0209155Y0046006D01*
X0209256Y0046145D01*
X0209360Y0046282D01*
X0209467Y0046416D01*
X0209578Y0046547D01*
X0209691Y0046676D01*
X0209808Y0046802D01*
X0209928Y0046925D01*
X0210051Y0047045D01*
X0210177Y0047162D01*
X0210306Y0047275D01*
X0210437Y0047386D01*
X0210571Y0047493D01*
X0210708Y0047597D01*
X0210847Y0047698D01*
X0210989Y0047795D01*
X0211133Y0047889D01*
X0211279Y0047979D01*
X0211428Y0048066D01*
X0211578Y0048148D01*
X0211731Y0048228D01*
X0211885Y0048303D01*
X0212041Y0048374D01*
X0212199Y0048442D01*
X0212359Y0048506D01*
X0212520Y0048566D01*
X0212682Y0048622D01*
X0212846Y0048674D01*
X0213011Y0048721D01*
X0213177Y0048765D01*
X0213344Y0048805D01*
X0213512Y0048840D01*
X0213681Y0048872D01*
X0213851Y0048899D01*
X0214021Y0048922D01*
X0214192Y0048941D01*
X0214363Y0048956D01*
X0214535Y0048967D01*
X0214706Y0048973D01*
X0214878Y0048975D01*
X0215050Y0048973D01*
X0215221Y0048967D01*
X0215393Y0048956D01*
X0215564Y0048941D01*
X0215735Y0048922D01*
X0215905Y0048899D01*
X0216075Y0048872D01*
X0216244Y0048840D01*
X0216412Y0048805D01*
X0216579Y0048765D01*
X0216745Y0048721D01*
X0216910Y0048674D01*
X0217074Y0048622D01*
X0217236Y0048566D01*
X0217397Y0048506D01*
X0217557Y0048442D01*
X0217715Y0048374D01*
X0217871Y0048303D01*
X0218025Y0048228D01*
X0218178Y0048148D01*
X0218328Y0048066D01*
X0218477Y0047979D01*
X0218623Y0047889D01*
X0218767Y0047795D01*
X0218909Y0047698D01*
X0219048Y0047597D01*
X0219185Y0047493D01*
X0219319Y0047386D01*
X0219450Y0047275D01*
X0219579Y0047162D01*
X0219705Y0047045D01*
X0219828Y0046925D01*
X0219948Y0046802D01*
X0220065Y0046676D01*
X0220178Y0046547D01*
X0220289Y0046416D01*
X0220396Y0046282D01*
X0220500Y0046145D01*
X0220601Y0046006D01*
X0220698Y0045864D01*
X0220792Y0045720D01*
X0220882Y0045574D01*
X0220969Y0045425D01*
X0221051Y0045275D01*
X0221131Y0045122D01*
X0221206Y0044968D01*
X0221277Y0044812D01*
X0221345Y0044654D01*
X0221409Y0044494D01*
X0221469Y0044333D01*
X0221525Y0044171D01*
X0221577Y0044007D01*
X0221624Y0043842D01*
X0221668Y0043676D01*
X0221708Y0043509D01*
X0221743Y0043341D01*
X0221775Y0043172D01*
X0221802Y0043002D01*
X0221825Y0042832D01*
X0221844Y0042661D01*
X0221859Y0042490D01*
X0221870Y0042318D01*
X0221876Y0042147D01*
X0221878Y0041975D01*
X0221876Y0041803D01*
X0221870Y0041632D01*
X0221859Y0041460D01*
X0221844Y0041289D01*
X0221825Y0041118D01*
X0221802Y0040948D01*
X0221775Y0040778D01*
X0221743Y0040609D01*
X0221708Y0040441D01*
X0221668Y0040274D01*
X0221624Y0040108D01*
X0221577Y0039943D01*
X0221525Y0039779D01*
X0221469Y0039617D01*
X0221409Y0039456D01*
X0221345Y0039296D01*
X0221277Y0039138D01*
X0221206Y0038982D01*
X0221131Y0038828D01*
X0221051Y0038675D01*
X0220969Y0038525D01*
X0220882Y0038376D01*
X0220792Y0038230D01*
X0220698Y0038086D01*
X0220601Y0037944D01*
X0220500Y0037805D01*
X0220396Y0037668D01*
X0220289Y0037534D01*
X0220178Y0037403D01*
X0220065Y0037274D01*
X0219948Y0037148D01*
X0219828Y0037025D01*
X0219705Y0036905D01*
X0219579Y0036788D01*
X0219450Y0036675D01*
X0219319Y0036564D01*
X0219185Y0036457D01*
X0219048Y0036353D01*
X0218909Y0036252D01*
X0218767Y0036155D01*
X0218623Y0036061D01*
X0218477Y0035971D01*
X0218328Y0035884D01*
X0218178Y0035802D01*
X0218025Y0035722D01*
X0217871Y0035647D01*
X0217715Y0035576D01*
X0217557Y0035508D01*
X0217397Y0035444D01*
X0217236Y0035384D01*
X0217074Y0035328D01*
X0216910Y0035276D01*
X0216745Y0035229D01*
X0216579Y0035185D01*
X0216412Y0035145D01*
X0216244Y0035110D01*
X0216075Y0035078D01*
X0215905Y0035051D01*
X0215735Y0035028D01*
X0215564Y0035009D01*
X0215393Y0034994D01*
X0215221Y0034983D01*
X0215050Y0034977D01*
X0214878Y0034975D01*
X0214706Y0034977D01*
X0214535Y0034983D01*
X0214363Y0034994D01*
X0214192Y0035009D01*
X0214021Y0035028D01*
X0213851Y0035051D01*
X0213681Y0035078D01*
X0213512Y0035110D01*
X0213344Y0035145D01*
X0213177Y0035185D01*
X0213011Y0035229D01*
X0212846Y0035276D01*
X0212682Y0035328D01*
X0212520Y0035384D01*
X0212359Y0035444D01*
X0212199Y0035508D01*
X0212041Y0035576D01*
X0211885Y0035647D01*
X0211731Y0035722D01*
X0211578Y0035802D01*
X0211428Y0035884D01*
X0211279Y0035971D01*
X0211133Y0036061D01*
X0210989Y0036155D01*
X0210847Y0036252D01*
X0210708Y0036353D01*
X0210571Y0036457D01*
X0210437Y0036564D01*
X0210306Y0036675D01*
X0210177Y0036788D01*
X0210051Y0036905D01*
X0209928Y0037025D01*
X0209808Y0037148D01*
X0209691Y0037274D01*
X0209578Y0037403D01*
X0209467Y0037534D01*
X0209360Y0037668D01*
X0209256Y0037805D01*
X0209155Y0037944D01*
X0209058Y0038086D01*
X0208964Y0038230D01*
X0208874Y0038376D01*
X0208787Y0038525D01*
X0208705Y0038675D01*
X0208625Y0038828D01*
X0208550Y0038982D01*
X0208479Y0039138D01*
X0208411Y0039296D01*
X0208347Y0039456D01*
X0208287Y0039617D01*
X0208231Y0039779D01*
X0208179Y0039943D01*
X0208132Y0040108D01*
X0208088Y0040274D01*
X0208048Y0040441D01*
X0208013Y0040609D01*
X0207981Y0040778D01*
X0207954Y0040948D01*
X0207931Y0041118D01*
X0207912Y0041289D01*
X0207897Y0041460D01*
X0207886Y0041632D01*
X0207880Y0041803D01*
X0207878Y0041975D01*
D12*
X0203878Y0046975D02*
X0202878Y0046975D01*
X0203878Y0046975D02*
X0203878Y0036975D01*
X0202878Y0036975D01*
X0225878Y0036975D02*
X0226878Y0036975D01*
X0225878Y0036975D02*
X0225878Y0046475D01*
X0226878Y0046475D01*
X0225478Y0078375D02*
X0224478Y0078375D01*
X0224478Y0087875D01*
X0225478Y0087875D01*
X0202478Y0088375D02*
X0202478Y0078375D01*
X0201478Y0078375D01*
X0201478Y0088375D02*
X0202478Y0088375D01*
X0074378Y0103075D02*
X0074378Y0135575D01*
X0038378Y0135575D01*
X0038378Y0103075D01*
X0074378Y0103075D01*
D13*
X0066378Y0088325D03*
X0056378Y0088325D03*
X0046378Y0088325D03*
D14*
X0046378Y0095075D03*
X0056378Y0095075D03*
X0066378Y0095075D03*
D15*
X0049878Y0149575D02*
X0049880Y0149736D01*
X0049886Y0149896D01*
X0049896Y0150057D01*
X0049910Y0150217D01*
X0049928Y0150377D01*
X0049949Y0150536D01*
X0049975Y0150695D01*
X0050005Y0150853D01*
X0050038Y0151010D01*
X0050076Y0151167D01*
X0050117Y0151322D01*
X0050162Y0151476D01*
X0050211Y0151629D01*
X0050264Y0151781D01*
X0050320Y0151932D01*
X0050381Y0152081D01*
X0050444Y0152229D01*
X0050512Y0152375D01*
X0050583Y0152519D01*
X0050657Y0152661D01*
X0050735Y0152802D01*
X0050817Y0152940D01*
X0050902Y0153077D01*
X0050990Y0153211D01*
X0051082Y0153343D01*
X0051177Y0153473D01*
X0051275Y0153601D01*
X0051376Y0153726D01*
X0051480Y0153848D01*
X0051587Y0153968D01*
X0051697Y0154085D01*
X0051810Y0154200D01*
X0051926Y0154311D01*
X0052045Y0154420D01*
X0052166Y0154525D01*
X0052290Y0154628D01*
X0052416Y0154728D01*
X0052544Y0154824D01*
X0052675Y0154917D01*
X0052809Y0155007D01*
X0052944Y0155094D01*
X0053082Y0155177D01*
X0053221Y0155257D01*
X0053363Y0155333D01*
X0053506Y0155406D01*
X0053651Y0155475D01*
X0053798Y0155541D01*
X0053946Y0155603D01*
X0054096Y0155661D01*
X0054247Y0155716D01*
X0054400Y0155767D01*
X0054554Y0155814D01*
X0054709Y0155857D01*
X0054865Y0155896D01*
X0055021Y0155932D01*
X0055179Y0155963D01*
X0055337Y0155991D01*
X0055496Y0156015D01*
X0055656Y0156035D01*
X0055816Y0156051D01*
X0055976Y0156063D01*
X0056137Y0156071D01*
X0056298Y0156075D01*
X0056458Y0156075D01*
X0056619Y0156071D01*
X0056780Y0156063D01*
X0056940Y0156051D01*
X0057100Y0156035D01*
X0057260Y0156015D01*
X0057419Y0155991D01*
X0057577Y0155963D01*
X0057735Y0155932D01*
X0057891Y0155896D01*
X0058047Y0155857D01*
X0058202Y0155814D01*
X0058356Y0155767D01*
X0058509Y0155716D01*
X0058660Y0155661D01*
X0058810Y0155603D01*
X0058958Y0155541D01*
X0059105Y0155475D01*
X0059250Y0155406D01*
X0059393Y0155333D01*
X0059535Y0155257D01*
X0059674Y0155177D01*
X0059812Y0155094D01*
X0059947Y0155007D01*
X0060081Y0154917D01*
X0060212Y0154824D01*
X0060340Y0154728D01*
X0060466Y0154628D01*
X0060590Y0154525D01*
X0060711Y0154420D01*
X0060830Y0154311D01*
X0060946Y0154200D01*
X0061059Y0154085D01*
X0061169Y0153968D01*
X0061276Y0153848D01*
X0061380Y0153726D01*
X0061481Y0153601D01*
X0061579Y0153473D01*
X0061674Y0153343D01*
X0061766Y0153211D01*
X0061854Y0153077D01*
X0061939Y0152940D01*
X0062021Y0152802D01*
X0062099Y0152661D01*
X0062173Y0152519D01*
X0062244Y0152375D01*
X0062312Y0152229D01*
X0062375Y0152081D01*
X0062436Y0151932D01*
X0062492Y0151781D01*
X0062545Y0151629D01*
X0062594Y0151476D01*
X0062639Y0151322D01*
X0062680Y0151167D01*
X0062718Y0151010D01*
X0062751Y0150853D01*
X0062781Y0150695D01*
X0062807Y0150536D01*
X0062828Y0150377D01*
X0062846Y0150217D01*
X0062860Y0150057D01*
X0062870Y0149896D01*
X0062876Y0149736D01*
X0062878Y0149575D01*
X0062876Y0149414D01*
X0062870Y0149254D01*
X0062860Y0149093D01*
X0062846Y0148933D01*
X0062828Y0148773D01*
X0062807Y0148614D01*
X0062781Y0148455D01*
X0062751Y0148297D01*
X0062718Y0148140D01*
X0062680Y0147983D01*
X0062639Y0147828D01*
X0062594Y0147674D01*
X0062545Y0147521D01*
X0062492Y0147369D01*
X0062436Y0147218D01*
X0062375Y0147069D01*
X0062312Y0146921D01*
X0062244Y0146775D01*
X0062173Y0146631D01*
X0062099Y0146489D01*
X0062021Y0146348D01*
X0061939Y0146210D01*
X0061854Y0146073D01*
X0061766Y0145939D01*
X0061674Y0145807D01*
X0061579Y0145677D01*
X0061481Y0145549D01*
X0061380Y0145424D01*
X0061276Y0145302D01*
X0061169Y0145182D01*
X0061059Y0145065D01*
X0060946Y0144950D01*
X0060830Y0144839D01*
X0060711Y0144730D01*
X0060590Y0144625D01*
X0060466Y0144522D01*
X0060340Y0144422D01*
X0060212Y0144326D01*
X0060081Y0144233D01*
X0059947Y0144143D01*
X0059812Y0144056D01*
X0059674Y0143973D01*
X0059535Y0143893D01*
X0059393Y0143817D01*
X0059250Y0143744D01*
X0059105Y0143675D01*
X0058958Y0143609D01*
X0058810Y0143547D01*
X0058660Y0143489D01*
X0058509Y0143434D01*
X0058356Y0143383D01*
X0058202Y0143336D01*
X0058047Y0143293D01*
X0057891Y0143254D01*
X0057735Y0143218D01*
X0057577Y0143187D01*
X0057419Y0143159D01*
X0057260Y0143135D01*
X0057100Y0143115D01*
X0056940Y0143099D01*
X0056780Y0143087D01*
X0056619Y0143079D01*
X0056458Y0143075D01*
X0056298Y0143075D01*
X0056137Y0143079D01*
X0055976Y0143087D01*
X0055816Y0143099D01*
X0055656Y0143115D01*
X0055496Y0143135D01*
X0055337Y0143159D01*
X0055179Y0143187D01*
X0055021Y0143218D01*
X0054865Y0143254D01*
X0054709Y0143293D01*
X0054554Y0143336D01*
X0054400Y0143383D01*
X0054247Y0143434D01*
X0054096Y0143489D01*
X0053946Y0143547D01*
X0053798Y0143609D01*
X0053651Y0143675D01*
X0053506Y0143744D01*
X0053363Y0143817D01*
X0053221Y0143893D01*
X0053082Y0143973D01*
X0052944Y0144056D01*
X0052809Y0144143D01*
X0052675Y0144233D01*
X0052544Y0144326D01*
X0052416Y0144422D01*
X0052290Y0144522D01*
X0052166Y0144625D01*
X0052045Y0144730D01*
X0051926Y0144839D01*
X0051810Y0144950D01*
X0051697Y0145065D01*
X0051587Y0145182D01*
X0051480Y0145302D01*
X0051376Y0145424D01*
X0051275Y0145549D01*
X0051177Y0145677D01*
X0051082Y0145807D01*
X0050990Y0145939D01*
X0050902Y0146073D01*
X0050817Y0146210D01*
X0050735Y0146348D01*
X0050657Y0146489D01*
X0050583Y0146631D01*
X0050512Y0146775D01*
X0050444Y0146921D01*
X0050381Y0147069D01*
X0050320Y0147218D01*
X0050264Y0147369D01*
X0050211Y0147521D01*
X0050162Y0147674D01*
X0050117Y0147828D01*
X0050076Y0147983D01*
X0050038Y0148140D01*
X0050005Y0148297D01*
X0049975Y0148455D01*
X0049949Y0148614D01*
X0049928Y0148773D01*
X0049910Y0148933D01*
X0049896Y0149093D01*
X0049886Y0149254D01*
X0049880Y0149414D01*
X0049878Y0149575D01*
D16*
X0034528Y0102871D02*
X0034528Y0098667D01*
X0030325Y0102871D01*
X0029274Y0102871D01*
X0028223Y0101820D01*
X0028223Y0099718D01*
X0029274Y0098667D01*
X0029274Y0096425D02*
X0028223Y0095374D01*
X0028223Y0093272D01*
X0029274Y0092222D01*
X0033478Y0092222D01*
X0034528Y0093272D01*
X0034528Y0095374D01*
X0033478Y0096425D01*
X0034528Y0090026D02*
X0034528Y0087925D01*
X0034528Y0088975D02*
X0028223Y0088975D01*
X0028223Y0087925D02*
X0028223Y0090026D01*
D17*
X0215347Y0110728D02*
X0215516Y0110827D01*
X0215682Y0110931D01*
X0215846Y0111038D01*
X0216007Y0111149D01*
X0216165Y0111264D01*
X0216320Y0111383D01*
X0216473Y0111506D01*
X0216622Y0111632D01*
X0216768Y0111762D01*
X0216911Y0111896D01*
X0217051Y0112033D01*
X0217187Y0112173D01*
X0217320Y0112317D01*
X0217449Y0112464D01*
X0217575Y0112614D01*
X0217696Y0112767D01*
X0217815Y0112923D01*
X0217929Y0113082D01*
X0218039Y0113243D01*
X0218145Y0113408D01*
X0218248Y0113574D01*
X0218346Y0113744D01*
X0218440Y0113915D01*
X0218530Y0114089D01*
X0218615Y0114265D01*
X0218697Y0114443D01*
X0218773Y0114623D01*
X0218846Y0114805D01*
X0218914Y0114988D01*
X0218977Y0115173D01*
X0219036Y0115360D01*
X0219090Y0115548D01*
X0219140Y0115737D01*
X0219185Y0115927D01*
X0219225Y0116119D01*
X0219261Y0116311D01*
X0219292Y0116504D01*
X0219318Y0116698D01*
X0219340Y0116893D01*
X0219356Y0117088D01*
X0219368Y0117283D01*
X0219376Y0117479D01*
X0219378Y0117674D01*
X0207613Y0110616D02*
X0207445Y0110709D01*
X0207279Y0110805D01*
X0207115Y0110905D01*
X0206954Y0111010D01*
X0206795Y0111118D01*
X0206639Y0111230D01*
X0206485Y0111346D01*
X0206335Y0111465D01*
X0206187Y0111588D01*
X0206042Y0111714D01*
X0205901Y0111844D01*
X0205762Y0111977D01*
X0205627Y0112114D01*
X0205495Y0112254D01*
X0205367Y0112396D01*
X0205242Y0112542D01*
X0205120Y0112691D01*
X0205002Y0112843D01*
X0204888Y0112997D01*
X0204778Y0113155D01*
X0204671Y0113314D01*
X0204568Y0113477D01*
X0204469Y0113642D01*
X0204374Y0113809D01*
X0204284Y0113978D01*
X0204197Y0114149D01*
X0204114Y0114323D01*
X0204036Y0114498D01*
X0203962Y0114676D01*
X0203892Y0114855D01*
X0203826Y0115035D01*
X0203765Y0115217D01*
X0203708Y0115401D01*
X0203656Y0115586D01*
X0203608Y0115772D01*
X0203564Y0115959D01*
X0203525Y0116147D01*
X0203491Y0116336D01*
X0203461Y0116526D01*
X0203436Y0116716D01*
X0203415Y0116907D01*
X0203399Y0117099D01*
X0203387Y0117291D01*
X0203380Y0117483D01*
X0203378Y0117675D01*
X0216546Y0123782D02*
X0216692Y0123655D01*
X0216834Y0123526D01*
X0216974Y0123392D01*
X0217110Y0123256D01*
X0217243Y0123116D01*
X0217373Y0122973D01*
X0217499Y0122826D01*
X0217621Y0122677D01*
X0217740Y0122525D01*
X0217855Y0122370D01*
X0217967Y0122213D01*
X0218074Y0122053D01*
X0218178Y0121890D01*
X0218277Y0121724D01*
X0218373Y0121557D01*
X0218465Y0121387D01*
X0218552Y0121215D01*
X0218636Y0121041D01*
X0218715Y0120865D01*
X0218789Y0120687D01*
X0218860Y0120507D01*
X0218926Y0120326D01*
X0218988Y0120143D01*
X0219045Y0119959D01*
X0219098Y0119773D01*
X0219146Y0119586D01*
X0219190Y0119398D01*
X0219229Y0119209D01*
X0219264Y0119019D01*
X0219294Y0118829D01*
X0219320Y0118638D01*
X0219341Y0118446D01*
X0219357Y0118253D01*
X0219369Y0118061D01*
X0219376Y0117868D01*
X0219378Y0117675D01*
X0206256Y0123821D02*
X0206108Y0123694D01*
X0205963Y0123564D01*
X0205822Y0123431D01*
X0205683Y0123294D01*
X0205548Y0123154D01*
X0205417Y0123010D01*
X0205289Y0122863D01*
X0205164Y0122714D01*
X0205043Y0122561D01*
X0204926Y0122406D01*
X0204813Y0122247D01*
X0204704Y0122086D01*
X0204599Y0121922D01*
X0204497Y0121756D01*
X0204400Y0121587D01*
X0204307Y0121417D01*
X0204218Y0121243D01*
X0204133Y0121068D01*
X0204053Y0120891D01*
X0203977Y0120712D01*
X0203905Y0120531D01*
X0203838Y0120348D01*
X0203775Y0120164D01*
X0203717Y0119978D01*
X0203663Y0119791D01*
X0203614Y0119603D01*
X0203569Y0119413D01*
X0203529Y0119223D01*
X0203494Y0119031D01*
X0203463Y0118839D01*
X0203437Y0118646D01*
X0203416Y0118452D01*
X0203399Y0118258D01*
X0203387Y0118064D01*
X0203380Y0117870D01*
X0203378Y0117675D01*
X0215347Y0140728D02*
X0215516Y0140827D01*
X0215682Y0140931D01*
X0215846Y0141038D01*
X0216007Y0141149D01*
X0216165Y0141264D01*
X0216320Y0141383D01*
X0216473Y0141506D01*
X0216622Y0141632D01*
X0216768Y0141762D01*
X0216911Y0141896D01*
X0217051Y0142033D01*
X0217187Y0142173D01*
X0217320Y0142317D01*
X0217449Y0142464D01*
X0217575Y0142614D01*
X0217696Y0142767D01*
X0217815Y0142923D01*
X0217929Y0143082D01*
X0218039Y0143243D01*
X0218145Y0143408D01*
X0218248Y0143574D01*
X0218346Y0143744D01*
X0218440Y0143915D01*
X0218530Y0144089D01*
X0218615Y0144265D01*
X0218697Y0144443D01*
X0218773Y0144623D01*
X0218846Y0144805D01*
X0218914Y0144988D01*
X0218977Y0145173D01*
X0219036Y0145360D01*
X0219090Y0145548D01*
X0219140Y0145737D01*
X0219185Y0145927D01*
X0219225Y0146119D01*
X0219261Y0146311D01*
X0219292Y0146504D01*
X0219318Y0146698D01*
X0219340Y0146893D01*
X0219356Y0147088D01*
X0219368Y0147283D01*
X0219376Y0147479D01*
X0219378Y0147674D01*
X0207613Y0140616D02*
X0207445Y0140709D01*
X0207279Y0140805D01*
X0207115Y0140905D01*
X0206954Y0141010D01*
X0206795Y0141118D01*
X0206639Y0141230D01*
X0206485Y0141346D01*
X0206335Y0141465D01*
X0206187Y0141588D01*
X0206042Y0141714D01*
X0205901Y0141844D01*
X0205762Y0141977D01*
X0205627Y0142114D01*
X0205495Y0142254D01*
X0205367Y0142396D01*
X0205242Y0142542D01*
X0205120Y0142691D01*
X0205002Y0142843D01*
X0204888Y0142997D01*
X0204778Y0143155D01*
X0204671Y0143314D01*
X0204568Y0143477D01*
X0204469Y0143642D01*
X0204374Y0143809D01*
X0204284Y0143978D01*
X0204197Y0144149D01*
X0204114Y0144323D01*
X0204036Y0144498D01*
X0203962Y0144676D01*
X0203892Y0144855D01*
X0203826Y0145035D01*
X0203765Y0145217D01*
X0203708Y0145401D01*
X0203656Y0145586D01*
X0203608Y0145772D01*
X0203564Y0145959D01*
X0203525Y0146147D01*
X0203491Y0146336D01*
X0203461Y0146526D01*
X0203436Y0146716D01*
X0203415Y0146907D01*
X0203399Y0147099D01*
X0203387Y0147291D01*
X0203380Y0147483D01*
X0203378Y0147675D01*
X0216546Y0153782D02*
X0216692Y0153655D01*
X0216834Y0153526D01*
X0216974Y0153392D01*
X0217110Y0153256D01*
X0217243Y0153116D01*
X0217373Y0152973D01*
X0217499Y0152826D01*
X0217621Y0152677D01*
X0217740Y0152525D01*
X0217855Y0152370D01*
X0217967Y0152213D01*
X0218074Y0152053D01*
X0218178Y0151890D01*
X0218277Y0151724D01*
X0218373Y0151557D01*
X0218465Y0151387D01*
X0218552Y0151215D01*
X0218636Y0151041D01*
X0218715Y0150865D01*
X0218789Y0150687D01*
X0218860Y0150507D01*
X0218926Y0150326D01*
X0218988Y0150143D01*
X0219045Y0149959D01*
X0219098Y0149773D01*
X0219146Y0149586D01*
X0219190Y0149398D01*
X0219229Y0149209D01*
X0219264Y0149019D01*
X0219294Y0148829D01*
X0219320Y0148638D01*
X0219341Y0148446D01*
X0219357Y0148253D01*
X0219369Y0148061D01*
X0219376Y0147868D01*
X0219378Y0147675D01*
X0206256Y0153821D02*
X0206108Y0153694D01*
X0205963Y0153564D01*
X0205822Y0153431D01*
X0205683Y0153294D01*
X0205548Y0153154D01*
X0205417Y0153010D01*
X0205289Y0152863D01*
X0205164Y0152714D01*
X0205043Y0152561D01*
X0204926Y0152406D01*
X0204813Y0152247D01*
X0204704Y0152086D01*
X0204599Y0151922D01*
X0204497Y0151756D01*
X0204400Y0151587D01*
X0204307Y0151417D01*
X0204218Y0151243D01*
X0204133Y0151068D01*
X0204053Y0150891D01*
X0203977Y0150712D01*
X0203905Y0150531D01*
X0203838Y0150348D01*
X0203775Y0150164D01*
X0203717Y0149978D01*
X0203663Y0149791D01*
X0203614Y0149603D01*
X0203569Y0149413D01*
X0203529Y0149223D01*
X0203494Y0149031D01*
X0203463Y0148839D01*
X0203437Y0148646D01*
X0203416Y0148452D01*
X0203399Y0148258D01*
X0203387Y0148064D01*
X0203380Y0147870D01*
X0203378Y0147675D01*
D18*
X0073308Y0078029D02*
X0073308Y0071730D01*
X0073308Y0078029D02*
X0067008Y0078029D01*
X0045749Y0078029D02*
X0039449Y0078029D01*
X0039449Y0021730D01*
X0073308Y0021730D01*
X0073308Y0053029D01*
D19*
X0077342Y0044359D02*
X0076575Y0043592D01*
X0076575Y0041290D01*
X0081178Y0041290D01*
X0079644Y0041290D02*
X0079644Y0043592D01*
X0078877Y0044359D01*
X0077342Y0044359D01*
X0079644Y0042825D02*
X0081178Y0044359D01*
X0081178Y0039756D02*
X0081178Y0036686D01*
X0076575Y0036686D01*
X0076575Y0039756D01*
X0078877Y0038221D02*
X0078877Y0036686D01*
X0081178Y0035152D02*
X0076575Y0035152D01*
X0076575Y0032082D02*
X0081178Y0032082D01*
X0079644Y0033617D01*
X0081178Y0035152D01*
X0080411Y0030548D02*
X0077342Y0030548D01*
X0076575Y0029780D01*
X0076575Y0028246D01*
X0077342Y0027478D01*
X0080411Y0027478D01*
X0081178Y0028246D01*
X0081178Y0029780D01*
X0080411Y0030548D01*
X0078877Y0025944D02*
X0079644Y0025176D01*
X0079644Y0022875D01*
X0081178Y0022875D02*
X0076575Y0022875D01*
X0076575Y0025176D01*
X0077342Y0025944D01*
X0078877Y0025944D01*
X0120878Y0175375D02*
X0120878Y0178877D01*
X0122630Y0178877D01*
X0123214Y0178294D01*
X0123214Y0177126D01*
X0122630Y0176542D01*
X0120878Y0176542D01*
X0122046Y0176542D02*
X0123214Y0175375D01*
X0124470Y0175958D02*
X0125053Y0175375D01*
X0126221Y0175375D01*
X0126805Y0175958D01*
X0126805Y0177126D01*
X0126221Y0177710D01*
X0125637Y0177710D01*
X0124470Y0177126D01*
X0124470Y0178877D01*
X0126805Y0178877D01*
X0127153Y0194575D02*
X0126570Y0195158D01*
X0126570Y0196326D01*
X0128321Y0196326D01*
X0128905Y0195742D01*
X0128905Y0195158D01*
X0128321Y0194575D01*
X0127153Y0194575D01*
X0125314Y0194575D02*
X0124146Y0195742D01*
X0124730Y0195742D02*
X0122978Y0195742D01*
X0122978Y0194575D02*
X0122978Y0198077D01*
X0124730Y0198077D01*
X0125314Y0197494D01*
X0125314Y0196326D01*
X0124730Y0195742D01*
X0126570Y0196326D02*
X0127737Y0197494D01*
X0128905Y0198077D01*
M02*
